M48
;Layer_Color=9474304
;FILE_FORMAT=2:4
INCH
;TYPE=PLATED
T1F00S00C0.0120
;TYPE=NON_PLATED
T2F00S00C0.0236
%
T01
X049326Y016624
X048750Y017850
X050500Y018300
X050950Y017850
X051800
X053092Y016747
X055000Y018950
X056523Y018301
X056600Y020550
X055900
X057200Y021200
X059099Y021051
X058650Y023900
Y026350
Y027000
X058200Y025950
X055325Y025815
X054800Y026400
X053700Y026550
Y024200
X054375Y024185
X054900Y023600
X052000Y023350
X051050Y022350
X048100Y024050
X047650Y024850
X047477Y025200
Y025550
X048100Y026550
X047150Y027000
Y027300
Y027650
X048700Y028950
X049500Y029400
X052400Y028950
X053400Y029050
X054337Y028799
X054450Y029500
X055150Y028750
X056000Y029950
X056850
X057350Y029501
X060303Y028342
X060426Y024576
X054044Y030556
Y030950
X053650
X053256
Y030556
X053650
X052700Y030100
X045850Y025835
X045550Y025200
Y024750
Y024350
X044250Y023450
X044000Y023200
X043662Y022589
X042684Y022206
X042301Y023130
X041890Y024123
X042050Y024950
X041911Y025300
X042200Y026100
X042800Y026450
X042250Y028250
X041374Y027724
X042701Y031249
X043097Y021208
X043051Y020527
X043500Y020700
X044950Y020500
X044700Y019900
X045145Y019193
X045801Y017951
X044200Y031600
X045277Y033999
X046350Y033750
X049950Y034200
X050700Y034150
X050950Y033400
X051700Y033050
X053256Y031344
X053650
X054044
X055999Y034349
X052474Y035676
X048708Y035553
X058749Y031773
T02
X050900Y016698
X057584Y019466
X060352Y026150
X041448
X044216Y019466
Y032834
X050900Y035602
X057584Y032834
M30
