G04 Layer_Color=65535*
%FSAX25Y25*%
%MOIN*%
G70*
G01*
G75*
%ADD30C,0.01000*%
%ADD49C,0.00787*%
%ADD50C,0.00984*%
%ADD51C,0.02362*%
%ADD52C,0.00800*%
%ADD53C,0.00394*%
%ADD54C,0.00500*%
D30*
X0438289Y0190789D02*
X0441118Y0193618D01*
X0463213Y0261500D02*
X0464787D01*
X0462000Y0244000D02*
X0467000D01*
X0462000Y0246000D02*
X0467000D01*
Y0244000D02*
Y0246000D01*
X0462000Y0244000D02*
Y0246000D01*
X0541250Y0246950D02*
Y0253050D01*
X0555750Y0246950D02*
Y0253050D01*
X0480213Y0268500D02*
X0481787D01*
X0541500Y0294213D02*
Y0295787D01*
Y0289713D02*
Y0291287D01*
X0509713Y0226500D02*
X0511287D01*
X0479500Y0251213D02*
Y0252787D01*
Y0254713D02*
Y0256287D01*
X0497713Y0291000D02*
X0499287D01*
X0501213D02*
X0502787D01*
X0438289Y0332211D02*
X0441118Y0329382D01*
X0576882D02*
X0579711Y0332211D01*
X0509000Y0161500D02*
Y0165500D01*
X0409000Y0261500D02*
X0413000D01*
X0509000Y0357500D02*
Y0361500D01*
X0605000Y0261500D02*
X0609000D01*
X0576882Y0193618D02*
X0579711Y0190789D01*
D49*
X0461209Y0240669D02*
G03*
X0461209Y0240669I-0000197J0000000D01*
G01*
X0458650Y0249724D02*
X0459634D01*
X0451366D02*
X0458650D01*
X0451366Y0240276D02*
X0452350D01*
X0459634D01*
X0518382Y0217701D02*
Y0230299D01*
X0528618Y0217701D02*
Y0230299D01*
X0518382D02*
X0528618D01*
X0518382Y0217701D02*
X0528618D01*
X0526126Y0244374D02*
Y0278626D01*
X0491874Y0244374D02*
Y0278626D01*
Y0244374D02*
X0526126D01*
X0491874Y0278626D02*
X0526126D01*
X0545516Y0319638D02*
X0546638D01*
Y0318516D02*
Y0319638D01*
X0526362D02*
X0527484D01*
X0526362Y0318516D02*
Y0319638D01*
Y0299362D02*
Y0300484D01*
Y0299362D02*
X0527484D01*
X0545516D02*
X0546638D01*
Y0300484D01*
X0541201Y0272382D02*
X0553799D01*
X0541201Y0282618D02*
X0553799D01*
X0541201Y0272382D02*
Y0282618D01*
X0553799Y0272382D02*
Y0282618D01*
D50*
X0531244Y0244079D02*
G03*
X0531244Y0244079I-0000492J0000000D01*
G01*
X0549689Y0299953D02*
G03*
X0549689Y0299953I-0000492J0000000D01*
G01*
D51*
X0523370Y0248311D02*
G03*
X0523370Y0248311I-0001181J0000000D01*
G01*
D52*
X0424424Y0240956D02*
X0430244Y0243367D01*
X0432052Y0239002D01*
X0438696Y0222962D02*
X0440495Y0218620D01*
X0434674Y0216209D02*
X0440495Y0218620D01*
X0414530Y0236858D02*
X0424781Y0212111D01*
X0426971Y0236897D02*
X0432052Y0239002D01*
X0426971Y0236897D02*
X0433615Y0220858D01*
X0438696Y0222962D01*
D53*
X0456138Y0256185D02*
Y0259039D01*
X0460862Y0256185D02*
Y0259039D01*
Y0263961D02*
Y0266815D01*
X0456138D02*
X0460862D01*
X0456138Y0263961D02*
Y0266815D01*
Y0256185D02*
X0460862D01*
X0456827Y0260694D02*
X0460173D01*
X0458500D02*
X0460094Y0262287D01*
X0456906D02*
X0458500Y0260694D01*
X0456925Y0262287D02*
X0460075D01*
D54*
X0452500Y0251500D02*
Y0253500D01*
X0533000Y0293500D02*
X0535000D01*
X0536000Y0261500D02*
X0538000D01*
X0494000Y0291000D02*
X0496000D01*
X0479500Y0247500D02*
Y0249500D01*
X0545000Y0263000D02*
Y0265000D01*
X0552000Y0235000D02*
Y0237000D01*
X0536000Y0269500D02*
X0538000D01*
X0523000Y0232500D02*
Y0234500D01*
X0480000Y0243500D02*
X0482000D01*
X0490000Y0288500D02*
Y0290500D01*
X0521000Y0288500D02*
Y0290500D01*
X0536000Y0245000D02*
X0538000D01*
X0459000Y0251500D02*
Y0253500D01*
X0451000Y0238999D02*
Y0237333D01*
X0451333Y0237000D01*
X0452000D01*
X0452333Y0237333D01*
Y0238999D01*
X0452999Y0237000D02*
X0453666D01*
X0453333D01*
Y0238999D01*
X0452999Y0238666D01*
X0520000Y0216499D02*
Y0214500D01*
X0521000D01*
X0521333Y0214833D01*
Y0215166D01*
X0521000Y0215500D01*
X0520000D01*
X0521000D01*
X0521333Y0215833D01*
Y0216166D01*
X0521000Y0216499D01*
X0520000D01*
X0522999D02*
X0522333D01*
X0521999Y0216166D01*
Y0214833D01*
X0522333Y0214500D01*
X0522999D01*
X0523332Y0214833D01*
Y0216166D01*
X0522999Y0216499D01*
X0524998D02*
X0524332D01*
X0523999Y0216166D01*
Y0214833D01*
X0524332Y0214500D01*
X0524998D01*
X0525332Y0214833D01*
Y0216166D01*
X0524998Y0216499D01*
X0525998D02*
X0527331D01*
X0526664D01*
Y0214500D01*
X0487500Y0281499D02*
Y0279833D01*
X0487833Y0279500D01*
X0488500D01*
X0488833Y0279833D01*
Y0281499D01*
X0490832Y0279500D02*
X0489499D01*
X0490832Y0280833D01*
Y0281166D01*
X0490499Y0281499D01*
X0489833D01*
X0489499Y0281166D01*
X0526000Y0323999D02*
Y0322333D01*
X0526333Y0322000D01*
X0527000D01*
X0527333Y0322333D01*
Y0323999D01*
X0528999Y0322000D02*
Y0323999D01*
X0527999Y0323000D01*
X0529332D01*
X0463000Y0256000D02*
Y0257999D01*
X0464000D01*
X0464333Y0257666D01*
Y0257000D01*
X0464000Y0256666D01*
X0463000D01*
X0463666D02*
X0464333Y0256000D01*
X0464999D02*
X0465666D01*
X0465333D01*
Y0257999D01*
X0464999Y0257666D01*
X0462000Y0238999D02*
Y0237000D01*
X0463333D01*
X0463999D02*
X0464666D01*
X0464333D01*
Y0238999D01*
X0463999Y0238666D01*
X0447833Y0253166D02*
X0447500Y0253499D01*
X0446833D01*
X0446500Y0253166D01*
Y0251833D01*
X0446833Y0251500D01*
X0447500D01*
X0447833Y0251833D01*
X0448499Y0251500D02*
X0449166D01*
X0448833D01*
Y0253499D01*
X0448499Y0253166D01*
X0541000Y0237499D02*
Y0237166D01*
X0541666Y0236500D01*
X0542333Y0237166D01*
Y0237499D01*
X0541666Y0236500D02*
Y0235500D01*
X0542999D02*
X0543666D01*
X0543333D01*
Y0237499D01*
X0542999Y0237166D01*
X0557000Y0272500D02*
X0555001D01*
Y0273500D01*
X0555334Y0273833D01*
X0556000D01*
X0556334Y0273500D01*
Y0272500D01*
Y0273166D02*
X0557000Y0273833D01*
X0555001Y0275832D02*
Y0274499D01*
X0557000D01*
Y0275832D01*
X0556000Y0274499D02*
Y0275166D01*
X0555334Y0277832D02*
X0555001Y0277498D01*
Y0276832D01*
X0555334Y0276499D01*
X0555667D01*
X0556000Y0276832D01*
Y0277498D01*
X0556334Y0277832D01*
X0556667D01*
X0557000Y0277498D01*
Y0276832D01*
X0556667Y0276499D01*
X0555001Y0279831D02*
Y0278498D01*
X0557000D01*
Y0279831D01*
X0556000Y0278498D02*
Y0279165D01*
X0555001Y0280497D02*
Y0281830D01*
Y0281164D01*
X0557000D01*
X0479000Y0272000D02*
Y0273999D01*
X0480000D01*
X0480333Y0273666D01*
Y0273000D01*
X0480000Y0272666D01*
X0479000D01*
X0479666D02*
X0480333Y0272000D01*
X0480999Y0272333D02*
X0481333Y0272000D01*
X0481999D01*
X0482332Y0272333D01*
Y0273666D01*
X0481999Y0273999D01*
X0481333D01*
X0480999Y0273666D01*
Y0273333D01*
X0481333Y0273000D01*
X0482332D01*
X0545500Y0294000D02*
Y0295999D01*
X0546500D01*
X0546833Y0295666D01*
Y0295000D01*
X0546500Y0294666D01*
X0545500D01*
X0546166D02*
X0546833Y0294000D01*
X0547499Y0295666D02*
X0547833Y0295999D01*
X0548499D01*
X0548832Y0295666D01*
Y0295333D01*
X0548499Y0295000D01*
X0548832Y0294666D01*
Y0294333D01*
X0548499Y0294000D01*
X0547833D01*
X0547499Y0294333D01*
Y0294666D01*
X0547833Y0295000D01*
X0547499Y0295333D01*
Y0295666D01*
X0547833Y0295000D02*
X0548499D01*
X0545000Y0289500D02*
Y0291499D01*
X0546000D01*
X0546333Y0291166D01*
Y0290500D01*
X0546000Y0290166D01*
X0545000D01*
X0545666D02*
X0546333Y0289500D01*
X0546999Y0291499D02*
X0548332D01*
Y0291166D01*
X0546999Y0289833D01*
Y0289500D01*
X0509000Y0230000D02*
Y0231999D01*
X0510000D01*
X0510333Y0231666D01*
Y0231000D01*
X0510000Y0230666D01*
X0509000D01*
X0509666D02*
X0510333Y0230000D01*
X0512332Y0231999D02*
X0511666Y0231666D01*
X0510999Y0231000D01*
Y0230333D01*
X0511333Y0230000D01*
X0511999D01*
X0512332Y0230333D01*
Y0230666D01*
X0511999Y0231000D01*
X0510999D01*
X0472500Y0251000D02*
Y0252999D01*
X0473500D01*
X0473833Y0252666D01*
Y0252000D01*
X0473500Y0251666D01*
X0472500D01*
X0473166D02*
X0473833Y0251000D01*
X0475832Y0252999D02*
X0474499D01*
Y0252000D01*
X0475166Y0252333D01*
X0475499D01*
X0475832Y0252000D01*
Y0251333D01*
X0475499Y0251000D01*
X0474833D01*
X0474499Y0251333D01*
X0477500Y0257500D02*
Y0259499D01*
X0478500D01*
X0478833Y0259166D01*
Y0258500D01*
X0478500Y0258166D01*
X0477500D01*
X0478166D02*
X0478833Y0257500D01*
X0480499D02*
Y0259499D01*
X0479499Y0258500D01*
X0480832D01*
X0499500Y0294500D02*
X0497501D01*
Y0295500D01*
X0497834Y0295833D01*
X0498500D01*
X0498834Y0295500D01*
Y0294500D01*
Y0295166D02*
X0499500Y0295833D01*
X0497834Y0296499D02*
X0497501Y0296833D01*
Y0297499D01*
X0497834Y0297832D01*
X0498167D01*
X0498500Y0297499D01*
Y0297166D01*
Y0297499D01*
X0498834Y0297832D01*
X0499167D01*
X0499500Y0297499D01*
Y0296833D01*
X0499167Y0296499D01*
X0503000Y0294500D02*
X0501001D01*
Y0295500D01*
X0501334Y0295833D01*
X0502000D01*
X0502334Y0295500D01*
Y0294500D01*
Y0295166D02*
X0503000Y0295833D01*
Y0297832D02*
Y0296499D01*
X0501667Y0297832D01*
X0501334D01*
X0501001Y0297499D01*
Y0296833D01*
X0501334Y0296499D01*
X0530334Y0292333D02*
X0530001Y0292000D01*
Y0291333D01*
X0530334Y0291000D01*
X0531667D01*
X0532000Y0291333D01*
Y0292000D01*
X0531667Y0292333D01*
X0532000Y0292999D02*
Y0293666D01*
Y0293333D01*
X0530001D01*
X0530334Y0292999D01*
X0532000Y0295665D02*
X0530001D01*
X0531000Y0294666D01*
Y0295998D01*
X0536333Y0257666D02*
X0536000Y0257999D01*
X0535333D01*
X0535000Y0257666D01*
Y0256333D01*
X0535333Y0256000D01*
X0536000D01*
X0536333Y0256333D01*
X0536999Y0256000D02*
X0537666D01*
X0537333D01*
Y0257999D01*
X0536999Y0257666D01*
X0538665D02*
X0538999Y0257999D01*
X0539665D01*
X0539998Y0257666D01*
Y0257333D01*
X0539665Y0257000D01*
X0539332D01*
X0539665D01*
X0539998Y0256666D01*
Y0256333D01*
X0539665Y0256000D01*
X0538999D01*
X0538665Y0256333D01*
X0494334Y0295833D02*
X0494001Y0295500D01*
Y0294833D01*
X0494334Y0294500D01*
X0495667D01*
X0496000Y0294833D01*
Y0295500D01*
X0495667Y0295833D01*
X0496000Y0296499D02*
Y0297166D01*
Y0296833D01*
X0494001D01*
X0494334Y0296499D01*
X0496000Y0299498D02*
Y0298165D01*
X0494667Y0299498D01*
X0494334D01*
X0494001Y0299165D01*
Y0298499D01*
X0494334Y0298165D01*
X0472833Y0249166D02*
X0472500Y0249499D01*
X0471833D01*
X0471500Y0249166D01*
Y0247833D01*
X0471833Y0247500D01*
X0472500D01*
X0472833Y0247833D01*
X0473499Y0247500D02*
X0474166D01*
X0473833D01*
Y0249499D01*
X0473499Y0249166D01*
X0475166Y0247500D02*
X0475832D01*
X0475499D01*
Y0249499D01*
X0475166Y0249166D01*
X0550333Y0264666D02*
X0550000Y0264999D01*
X0549333D01*
X0549000Y0264666D01*
Y0263333D01*
X0549333Y0263000D01*
X0550000D01*
X0550333Y0263333D01*
X0550999Y0263000D02*
X0551666D01*
X0551333D01*
Y0264999D01*
X0550999Y0264666D01*
X0552666D02*
X0552999Y0264999D01*
X0553665D01*
X0553998Y0264666D01*
Y0263333D01*
X0553665Y0263000D01*
X0552999D01*
X0552666Y0263333D01*
Y0264666D01*
X0556833Y0236666D02*
X0556500Y0236999D01*
X0555833D01*
X0555500Y0236666D01*
Y0235333D01*
X0555833Y0235000D01*
X0556500D01*
X0556833Y0235333D01*
X0557499D02*
X0557833Y0235000D01*
X0558499D01*
X0558832Y0235333D01*
Y0236666D01*
X0558499Y0236999D01*
X0557833D01*
X0557499Y0236666D01*
Y0236333D01*
X0557833Y0236000D01*
X0558832D01*
X0536833Y0274666D02*
X0536500Y0274999D01*
X0535833D01*
X0535500Y0274666D01*
Y0273333D01*
X0535833Y0273000D01*
X0536500D01*
X0536833Y0273333D01*
X0537499Y0274666D02*
X0537833Y0274999D01*
X0538499D01*
X0538832Y0274666D01*
Y0274333D01*
X0538499Y0274000D01*
X0538832Y0273666D01*
Y0273333D01*
X0538499Y0273000D01*
X0537833D01*
X0537499Y0273333D01*
Y0273666D01*
X0537833Y0274000D01*
X0537499Y0274333D01*
Y0274666D01*
X0537833Y0274000D02*
X0538499D01*
X0527833Y0234166D02*
X0527500Y0234499D01*
X0526833D01*
X0526500Y0234166D01*
Y0232833D01*
X0526833Y0232500D01*
X0527500D01*
X0527833Y0232833D01*
X0528499Y0234499D02*
X0529832D01*
Y0234166D01*
X0528499Y0232833D01*
Y0232500D01*
X0477334Y0243333D02*
X0477001Y0243000D01*
Y0242333D01*
X0477334Y0242000D01*
X0478667D01*
X0479000Y0242333D01*
Y0243000D01*
X0478667Y0243333D01*
X0477001Y0245332D02*
X0477334Y0244666D01*
X0478000Y0243999D01*
X0478667D01*
X0479000Y0244333D01*
Y0244999D01*
X0478667Y0245332D01*
X0478334D01*
X0478000Y0244999D01*
Y0243999D01*
X0489333Y0293166D02*
X0489000Y0293499D01*
X0488333D01*
X0488000Y0293166D01*
Y0291833D01*
X0488333Y0291500D01*
X0489000D01*
X0489333Y0291833D01*
X0491332Y0293499D02*
X0489999D01*
Y0292500D01*
X0490666Y0292833D01*
X0490999D01*
X0491332Y0292500D01*
Y0291833D01*
X0490999Y0291500D01*
X0490333D01*
X0489999Y0291833D01*
X0520333Y0293166D02*
X0520000Y0293499D01*
X0519333D01*
X0519000Y0293166D01*
Y0291833D01*
X0519333Y0291500D01*
X0520000D01*
X0520333Y0291833D01*
X0521999Y0291500D02*
Y0293499D01*
X0520999Y0292500D01*
X0522332D01*
X0536833Y0250166D02*
X0536500Y0250499D01*
X0535833D01*
X0535500Y0250166D01*
Y0248833D01*
X0535833Y0248500D01*
X0536500D01*
X0536833Y0248833D01*
X0537499Y0250166D02*
X0537833Y0250499D01*
X0538499D01*
X0538832Y0250166D01*
Y0249833D01*
X0538499Y0249500D01*
X0538166D01*
X0538499D01*
X0538832Y0249166D01*
Y0248833D01*
X0538499Y0248500D01*
X0537833D01*
X0537499Y0248833D01*
X0463833Y0253166D02*
X0463500Y0253499D01*
X0462833D01*
X0462500Y0253166D01*
Y0251833D01*
X0462833Y0251500D01*
X0463500D01*
X0463833Y0251833D01*
X0465832Y0251500D02*
X0464499D01*
X0465832Y0252833D01*
Y0253166D01*
X0465499Y0253499D01*
X0464833D01*
X0464499Y0253166D01*
M02*
