G04 Layer_Physical_Order=2*
G04 Layer_Color=16711680*
%FSAX25Y25*%
%MOIN*%
G70*
G01*
G75*
%ADD24R,0.01969X0.02047*%
%ADD28R,0.02047X0.01969*%
%ADD30C,0.01000*%
%ADD31C,0.02362*%
%ADD32C,0.02400*%
%ADD33C,0.01181*%
G04:AMPARAMS|DCode=34|XSize=15.75mil|YSize=23.62mil|CornerRadius=0mil|HoleSize=0mil|Usage=FLASHONLY|Rotation=315.000|XOffset=0mil|YOffset=0mil|HoleType=Round|Shape=Rectangle|*
%AMROTATEDRECTD34*
4,1,4,-0.01392,-0.00278,0.00278,0.01392,0.01392,0.00278,-0.00278,-0.01392,-0.01392,-0.00278,0.0*
%
%ADD34ROTATEDRECTD34*%

%ADD35C,0.00394*%
%ADD36R,0.02362X0.01575*%
G04:AMPARAMS|DCode=37|XSize=15.75mil|YSize=23.62mil|CornerRadius=0mil|HoleSize=0mil|Usage=FLASHONLY|Rotation=225.000|XOffset=0mil|YOffset=0mil|HoleType=Round|Shape=Rectangle|*
%AMROTATEDRECTD37*
4,1,4,-0.00278,0.01392,0.01392,-0.00278,0.00278,-0.01392,-0.01392,0.00278,-0.00278,0.01392,0.0*
%
%ADD37ROTATEDRECTD37*%

%ADD38R,0.01575X0.02362*%
G04:AMPARAMS|DCode=39|XSize=27.56mil|YSize=31.5mil|CornerRadius=0mil|HoleSize=0mil|Usage=FLASHONLY|Rotation=281.250|XOffset=0mil|YOffset=0mil|HoleType=Round|Shape=Rectangle|*
%AMROTATEDRECTD39*
4,1,4,-0.01813,0.01044,0.01276,0.01659,0.01813,-0.01044,-0.01276,-0.01659,-0.01813,0.01044,0.0*
%
%ADD39ROTATEDRECTD39*%

G04:AMPARAMS|DCode=40|XSize=27.56mil|YSize=31.5mil|CornerRadius=0mil|HoleSize=0mil|Usage=FLASHONLY|Rotation=258.750|XOffset=0mil|YOffset=0mil|HoleType=Round|Shape=Rectangle|*
%AMROTATEDRECTD40*
4,1,4,-0.01276,0.01659,0.01813,0.01044,0.01276,-0.01659,-0.01813,-0.01044,-0.01276,0.01659,0.0*
%
%ADD40ROTATEDRECTD40*%

G04:AMPARAMS|DCode=41|XSize=27.56mil|YSize=31.5mil|CornerRadius=0mil|HoleSize=0mil|Usage=FLASHONLY|Rotation=236.250|XOffset=0mil|YOffset=0mil|HoleType=Round|Shape=Rectangle|*
%AMROTATEDRECTD41*
4,1,4,-0.00544,0.02021,0.02075,0.00271,0.00544,-0.02021,-0.02075,-0.00271,-0.00544,0.02021,0.0*
%
%ADD41ROTATEDRECTD41*%

G04:AMPARAMS|DCode=42|XSize=27.56mil|YSize=31.5mil|CornerRadius=0mil|HoleSize=0mil|Usage=FLASHONLY|Rotation=213.750|XOffset=0mil|YOffset=0mil|HoleType=Round|Shape=Rectangle|*
%AMROTATEDRECTD42*
4,1,4,0.00271,0.02075,0.02021,-0.00544,-0.00271,-0.02075,-0.02021,0.00544,0.00271,0.02075,0.0*
%
%ADD42ROTATEDRECTD42*%

G04:AMPARAMS|DCode=43|XSize=27.56mil|YSize=31.5mil|CornerRadius=0mil|HoleSize=0mil|Usage=FLASHONLY|Rotation=191.250|XOffset=0mil|YOffset=0mil|HoleType=Round|Shape=Rectangle|*
%AMROTATEDRECTD43*
4,1,4,0.01044,0.01813,0.01659,-0.01276,-0.01044,-0.01813,-0.01659,0.01276,0.01044,0.01813,0.0*
%
%ADD43ROTATEDRECTD43*%

G04:AMPARAMS|DCode=44|XSize=27.56mil|YSize=31.5mil|CornerRadius=0mil|HoleSize=0mil|Usage=FLASHONLY|Rotation=168.750|XOffset=0mil|YOffset=0mil|HoleType=Round|Shape=Rectangle|*
%AMROTATEDRECTD44*
4,1,4,0.01659,0.01276,0.01044,-0.01813,-0.01659,-0.01276,-0.01044,0.01813,0.01659,0.01276,0.0*
%
%ADD44ROTATEDRECTD44*%

G04:AMPARAMS|DCode=45|XSize=27.56mil|YSize=31.5mil|CornerRadius=0mil|HoleSize=0mil|Usage=FLASHONLY|Rotation=146.250|XOffset=0mil|YOffset=0mil|HoleType=Round|Shape=Rectangle|*
%AMROTATEDRECTD45*
4,1,4,0.02021,0.00544,0.00271,-0.02075,-0.02021,-0.00544,-0.00271,0.02075,0.02021,0.00544,0.0*
%
%ADD45ROTATEDRECTD45*%

G04:AMPARAMS|DCode=46|XSize=27.56mil|YSize=31.5mil|CornerRadius=0mil|HoleSize=0mil|Usage=FLASHONLY|Rotation=123.750|XOffset=0mil|YOffset=0mil|HoleType=Round|Shape=Rectangle|*
%AMROTATEDRECTD46*
4,1,4,0.02075,-0.00271,-0.00544,-0.02021,-0.02075,0.00271,0.00544,0.02021,0.02075,-0.00271,0.0*
%
%ADD46ROTATEDRECTD46*%

G04:AMPARAMS|DCode=47|XSize=19.69mil|YSize=20.47mil|CornerRadius=0mil|HoleSize=0mil|Usage=FLASHONLY|Rotation=135.000|XOffset=0mil|YOffset=0mil|HoleType=Round|Shape=Rectangle|*
%AMROTATEDRECTD47*
4,1,4,0.01420,0.00028,-0.00028,-0.01420,-0.01420,-0.00028,0.00028,0.01420,0.01420,0.00028,0.0*
%
%ADD47ROTATEDRECTD47*%

G04:AMPARAMS|DCode=48|XSize=19.69mil|YSize=20.47mil|CornerRadius=0mil|HoleSize=0mil|Usage=FLASHONLY|Rotation=225.000|XOffset=0mil|YOffset=0mil|HoleType=Round|Shape=Rectangle|*
%AMROTATEDRECTD48*
4,1,4,-0.00028,0.01420,0.01420,-0.00028,0.00028,-0.01420,-0.01420,0.00028,-0.00028,0.01420,0.0*
%
%ADD48ROTATEDRECTD48*%

G36*
X0586547Y0265011D02*
X0586877Y0264790D01*
X0587268Y0264713D01*
X0592095D01*
Y0264051D01*
X0599787D01*
Y0267413D01*
X0599520D01*
Y0268123D01*
X0599873Y0268476D01*
X0600500Y0268476D01*
X0600870Y0268476D01*
X0601114D01*
Y0270000D01*
Y0271524D01*
X0600710D01*
X0600413Y0271934D01*
X0603688Y0275208D01*
X0606415Y0275751D01*
X0606967Y0275448D01*
X0607273Y0273432D01*
X0607815Y0267477D01*
X0607995Y0261500D01*
X0607815Y0255523D01*
X0607273Y0249568D01*
X0606967Y0247552D01*
X0606415Y0247249D01*
X0602592Y0248009D01*
X0601859Y0244326D01*
X0605836Y0243535D01*
X0606277Y0243206D01*
X0605858Y0241252D01*
X0605433Y0241022D01*
X0605302Y0241048D01*
X0601363Y0241831D01*
X0601002Y0240020D01*
X0587863D01*
X0587726Y0240226D01*
X0587163Y0240601D01*
X0586819Y0240670D01*
X0586654Y0241212D01*
X0599221Y0253779D01*
X0599442Y0254110D01*
X0599520Y0254500D01*
Y0255587D01*
X0599787D01*
Y0258949D01*
X0596883D01*
X0596883Y0258949D01*
X0596662Y0259280D01*
X0595721Y0260221D01*
X0595390Y0260442D01*
X0595000Y0260520D01*
X0587811D01*
X0565020Y0283311D01*
Y0285885D01*
X0565482Y0286076D01*
X0586547Y0265011D01*
D02*
G37*
G36*
X0570052Y0339427D02*
X0574646Y0335599D01*
X0579000Y0331500D01*
X0583099Y0327146D01*
X0586927Y0322552D01*
X0588136Y0320910D01*
X0587960Y0320306D01*
X0584719Y0318140D01*
X0586805Y0315017D01*
X0590177Y0317270D01*
X0590721Y0317350D01*
X0591806Y0315672D01*
X0591668Y0315208D01*
X0591558Y0315134D01*
X0588218Y0312902D01*
X0588913Y0311862D01*
X0573743Y0296692D01*
X0573500Y0296740D01*
X0572837Y0296608D01*
X0572274Y0296233D01*
X0571899Y0295670D01*
X0571767Y0295007D01*
X0571899Y0294344D01*
X0572274Y0293781D01*
X0572837Y0293406D01*
X0573500Y0293274D01*
X0574163Y0293406D01*
X0574726Y0293781D01*
X0575101Y0294344D01*
X0575233Y0295007D01*
X0575185Y0295250D01*
X0589790Y0309855D01*
X0590287Y0309806D01*
X0590305Y0309780D01*
X0593569Y0311961D01*
X0594182Y0311892D01*
X0596656Y0307505D01*
X0599274Y0302129D01*
X0601562Y0296604D01*
X0603513Y0290951D01*
X0604865Y0286100D01*
X0604480Y0285618D01*
X0600630Y0284852D01*
X0601363Y0281169D01*
X0605302Y0281952D01*
X0605433Y0281978D01*
X0605858Y0281748D01*
X0606277Y0279794D01*
X0605836Y0279465D01*
X0601859Y0278674D01*
X0602259Y0276664D01*
X0598165Y0272570D01*
X0597944Y0272239D01*
X0597866Y0271849D01*
Y0271524D01*
X0597402D01*
Y0271020D01*
X0587863D01*
X0587726Y0271226D01*
X0587163Y0271601D01*
X0586500Y0271733D01*
X0585837Y0271601D01*
X0585274Y0271226D01*
X0584899Y0270663D01*
X0584830Y0270319D01*
X0584288Y0270154D01*
X0566520Y0287922D01*
Y0300078D01*
X0577221Y0310779D01*
X0577442Y0311110D01*
X0577520Y0311500D01*
Y0320572D01*
X0577442Y0320962D01*
X0577221Y0321293D01*
X0577188Y0321326D01*
X0577378Y0321515D01*
X0575000Y0323892D01*
X0573165Y0322058D01*
X0572916Y0322307D01*
X0572585Y0322528D01*
X0572195Y0322605D01*
X0567151D01*
X0566959Y0323067D01*
X0569572Y0325680D01*
X0571392Y0327500D01*
X0569015Y0329878D01*
X0568826Y0329688D01*
X0568074Y0330440D01*
X0568505Y0330872D01*
X0568675Y0331041D01*
X0569029Y0331395D01*
X0569202Y0331568D01*
X0568124Y0332645D01*
X0567047Y0333722D01*
X0566874Y0333550D01*
X0566704Y0333380D01*
X0566351Y0333026D01*
X0564844Y0331520D01*
X0558859D01*
X0558668Y0331981D01*
X0564600Y0337914D01*
X0565640Y0337218D01*
X0567806Y0340460D01*
X0568410Y0340636D01*
X0570052Y0339427D01*
D02*
G37*
G36*
X0568480Y0224506D02*
Y0206985D01*
X0568558Y0206595D01*
X0568779Y0206264D01*
X0570028Y0205015D01*
X0569561Y0204547D01*
X0571370Y0202738D01*
X0573180Y0200928D01*
X0575000Y0199108D01*
X0577378Y0201485D01*
X0577188Y0201674D01*
X0577940Y0202426D01*
X0578372Y0201994D01*
X0578541Y0201825D01*
X0578895Y0201471D01*
X0579068Y0201298D01*
X0580145Y0202376D01*
X0581222Y0203453D01*
X0581050Y0203626D01*
X0580696Y0203979D01*
X0580875Y0204411D01*
X0585390D01*
X0587960Y0202694D01*
X0588136Y0202090D01*
X0586927Y0200448D01*
X0583099Y0195854D01*
X0579000Y0191500D01*
X0574646Y0187401D01*
X0570052Y0183573D01*
X0568410Y0182364D01*
X0567806Y0182540D01*
X0565640Y0185782D01*
X0562517Y0183695D01*
X0564770Y0180323D01*
X0564850Y0179779D01*
X0563172Y0178694D01*
X0562708Y0178832D01*
X0562634Y0178942D01*
X0560402Y0182282D01*
X0559358Y0181584D01*
X0551685Y0189257D01*
X0551733Y0189500D01*
X0551601Y0190163D01*
X0551226Y0190726D01*
X0550663Y0191101D01*
X0550000Y0191233D01*
X0549337Y0191101D01*
X0548774Y0190726D01*
X0548399Y0190163D01*
X0548267Y0189500D01*
X0548399Y0188837D01*
X0548774Y0188274D01*
X0549337Y0187899D01*
X0550000Y0187767D01*
X0550243Y0187815D01*
X0557351Y0180708D01*
X0557302Y0180210D01*
X0557280Y0180195D01*
X0559461Y0176931D01*
X0559392Y0176318D01*
X0555005Y0173844D01*
X0549629Y0171226D01*
X0544104Y0168938D01*
X0538451Y0166987D01*
X0533600Y0165635D01*
X0533118Y0166020D01*
X0532352Y0169870D01*
X0528669Y0169137D01*
X0529452Y0165198D01*
X0529478Y0165067D01*
X0529248Y0164642D01*
X0527294Y0164223D01*
X0526965Y0164664D01*
X0526174Y0168641D01*
X0524175Y0168244D01*
X0520084Y0172335D01*
X0519753Y0172556D01*
X0519363Y0172634D01*
X0519024D01*
Y0173098D01*
X0519020D01*
Y0177137D01*
X0519226Y0177274D01*
X0519601Y0177837D01*
X0519733Y0178500D01*
X0519601Y0179163D01*
X0519226Y0179726D01*
X0518663Y0180101D01*
X0518414Y0180151D01*
X0518250Y0180693D01*
X0531037Y0193480D01*
X0568572D01*
X0568643Y0193494D01*
X0569015Y0193122D01*
X0571392Y0195500D01*
X0569086Y0197806D01*
Y0200115D01*
X0569008Y0200505D01*
X0568787Y0200836D01*
X0564020Y0205604D01*
Y0220699D01*
X0568018Y0224698D01*
X0568480Y0224506D01*
D02*
G37*
G36*
X0514977Y0360315D02*
X0520932Y0359773D01*
X0522948Y0359467D01*
X0523251Y0358915D01*
X0522491Y0355092D01*
X0526174Y0354359D01*
X0526965Y0358336D01*
X0527294Y0358777D01*
X0529248Y0358358D01*
X0529478Y0357933D01*
X0529452Y0357802D01*
X0528669Y0353863D01*
X0529896Y0353619D01*
Y0344838D01*
X0517243Y0332185D01*
X0517000Y0332233D01*
X0516337Y0332101D01*
X0516261Y0332050D01*
X0515820Y0332286D01*
Y0340878D01*
X0518221Y0343279D01*
X0518442Y0343610D01*
X0518520Y0344000D01*
Y0348000D01*
X0518442Y0348390D01*
X0518221Y0348721D01*
X0515221Y0351721D01*
X0514913Y0351926D01*
Y0352287D01*
X0511551D01*
Y0349025D01*
X0509579Y0347053D01*
X0509358Y0346723D01*
X0509280Y0346332D01*
Y0341222D01*
X0495629Y0327571D01*
X0490720D01*
X0490513Y0328071D01*
X0505489Y0343047D01*
X0505710Y0343377D01*
X0505787Y0343768D01*
Y0344595D01*
X0506449D01*
Y0347153D01*
Y0349713D01*
Y0352287D01*
X0503087D01*
Y0352020D01*
X0502377D01*
X0502024Y0352373D01*
X0502024Y0353000D01*
X0502024Y0353370D01*
Y0353614D01*
X0500500D01*
X0498976D01*
Y0353196D01*
X0498576Y0352889D01*
X0495295Y0356170D01*
X0494749Y0358915D01*
X0495052Y0359467D01*
X0497067Y0359773D01*
X0503023Y0360315D01*
X0509000Y0360495D01*
X0514977Y0360315D01*
D02*
G37*
G36*
X0502279Y0171279D02*
X0502610Y0171058D01*
X0503000Y0170980D01*
X0503087D01*
Y0170713D01*
X0506449D01*
Y0173975D01*
X0507670Y0175196D01*
X0507891Y0175526D01*
X0507968Y0175917D01*
Y0178905D01*
X0524044Y0194980D01*
X0528999D01*
X0529191Y0194518D01*
X0513078Y0178405D01*
X0511551D01*
Y0175831D01*
Y0173272D01*
Y0170713D01*
X0514913D01*
Y0170980D01*
X0515623D01*
X0515976Y0170627D01*
X0515976Y0170000D01*
X0515976Y0169630D01*
Y0169386D01*
X0517500D01*
X0519024D01*
Y0169804D01*
X0519424Y0170111D01*
X0522705Y0166830D01*
X0523251Y0164085D01*
X0522948Y0163533D01*
X0520932Y0163227D01*
X0514977Y0162685D01*
X0509000Y0162505D01*
X0503023Y0162685D01*
X0497067Y0163227D01*
X0495052Y0163533D01*
X0494749Y0164085D01*
X0495509Y0167908D01*
X0491826Y0168641D01*
X0491035Y0164664D01*
X0490706Y0164223D01*
X0488752Y0164642D01*
X0488522Y0165067D01*
X0488548Y0165198D01*
X0489331Y0169137D01*
X0488520Y0169299D01*
Y0177137D01*
X0488726Y0177274D01*
X0489101Y0177837D01*
X0489233Y0178500D01*
X0489101Y0179163D01*
X0488726Y0179726D01*
X0488163Y0180101D01*
X0487500Y0180233D01*
X0486837Y0180101D01*
X0486274Y0179726D01*
X0485899Y0179163D01*
X0485767Y0178500D01*
X0485899Y0177837D01*
X0486274Y0177274D01*
X0486480Y0177137D01*
Y0170098D01*
X0486094Y0169781D01*
X0485648Y0169870D01*
X0484882Y0166020D01*
X0484400Y0165635D01*
X0479549Y0166987D01*
X0473896Y0168938D01*
X0468371Y0171226D01*
X0462995Y0173844D01*
X0458608Y0176318D01*
X0458539Y0176931D01*
X0460720Y0180195D01*
X0457597Y0182282D01*
X0455366Y0178942D01*
X0455292Y0178832D01*
X0454828Y0178694D01*
X0453151Y0179779D01*
X0453230Y0180323D01*
X0455483Y0183695D01*
X0453788Y0184827D01*
Y0190614D01*
X0453711Y0191004D01*
X0453490Y0191334D01*
X0453250Y0191574D01*
X0453578Y0191903D01*
X0453094Y0192387D01*
X0453053Y0192594D01*
X0452677Y0193156D01*
X0452115Y0193532D01*
X0451908Y0193573D01*
X0451424Y0194058D01*
X0451368Y0194002D01*
X0450616Y0194754D01*
X0453684Y0197821D01*
X0475737D01*
X0502279Y0171279D01*
D02*
G37*
G36*
X0424194Y0227786D02*
X0424272Y0227396D01*
X0424493Y0227065D01*
X0437480Y0214078D01*
Y0205428D01*
X0437558Y0205038D01*
X0437779Y0204707D01*
X0440812Y0201674D01*
X0440622Y0201485D01*
X0443000Y0199108D01*
X0444999Y0201107D01*
X0445594Y0200511D01*
X0445925Y0200290D01*
X0446315Y0200213D01*
X0450667D01*
X0450859Y0199751D01*
X0448417Y0197309D01*
X0446608Y0195500D01*
X0448985Y0193122D01*
X0449174Y0193312D01*
X0449615Y0192871D01*
X0449597Y0192231D01*
X0449325Y0191959D01*
X0449141Y0191775D01*
X0448799Y0191432D01*
X0449876Y0190355D01*
X0450953Y0189278D01*
X0451249Y0189574D01*
X0451749Y0189508D01*
Y0184867D01*
X0450194Y0182540D01*
X0449590Y0182364D01*
X0447948Y0183573D01*
X0443354Y0187401D01*
X0439000Y0191500D01*
X0434901Y0195854D01*
X0431073Y0200448D01*
X0429864Y0202090D01*
X0430040Y0202694D01*
X0433282Y0204860D01*
X0431195Y0207983D01*
X0427823Y0205730D01*
X0427279Y0205650D01*
X0426194Y0207328D01*
X0426332Y0207792D01*
X0426442Y0207866D01*
X0427928Y0208859D01*
X0431699D01*
X0433315Y0207243D01*
X0433267Y0207000D01*
X0433399Y0206337D01*
X0433774Y0205774D01*
X0434337Y0205399D01*
X0435000Y0205267D01*
X0435663Y0205399D01*
X0436226Y0205774D01*
X0436601Y0206337D01*
X0436733Y0207000D01*
X0436601Y0207663D01*
X0436226Y0208226D01*
X0435663Y0208601D01*
X0435000Y0208733D01*
X0434757Y0208685D01*
X0432842Y0210599D01*
X0432512Y0210821D01*
X0432122Y0210898D01*
X0429247D01*
X0427695Y0213220D01*
X0424431Y0211039D01*
X0423818Y0211108D01*
X0421344Y0215495D01*
X0418726Y0220871D01*
X0416438Y0226396D01*
X0414487Y0232049D01*
X0413135Y0236900D01*
X0413520Y0237382D01*
X0417370Y0238148D01*
X0416972Y0240146D01*
X0417274Y0240448D01*
X0417495Y0240779D01*
X0417573Y0241169D01*
Y0245131D01*
X0420257Y0247815D01*
X0420500Y0247767D01*
X0421163Y0247899D01*
X0421726Y0248274D01*
X0422101Y0248837D01*
X0422233Y0249500D01*
X0422101Y0250163D01*
X0421726Y0250726D01*
X0421163Y0251101D01*
X0420960Y0251142D01*
X0420598Y0251476D01*
Y0252161D01*
X0420716Y0252337D01*
X0420848Y0253000D01*
X0420716Y0253663D01*
X0420598Y0253839D01*
Y0254524D01*
X0420520D01*
Y0255587D01*
X0424194D01*
Y0227786D01*
D02*
G37*
G36*
X0491035Y0358336D02*
X0491826Y0354359D01*
X0493825Y0354756D01*
X0498480Y0350101D01*
Y0343363D01*
X0498274Y0343226D01*
X0497899Y0342663D01*
X0497767Y0342000D01*
X0497899Y0341337D01*
X0498274Y0340774D01*
X0498837Y0340399D01*
X0499181Y0340330D01*
X0499346Y0339788D01*
X0489078Y0329520D01*
X0449428D01*
X0449357Y0329505D01*
X0448985Y0329878D01*
X0446608Y0327500D01*
X0448417Y0325691D01*
X0450227Y0323881D01*
X0452047Y0322061D01*
X0454019Y0324032D01*
X0497052D01*
X0497442Y0324110D01*
X0497773Y0324331D01*
X0508922Y0335480D01*
X0510378D01*
X0510780Y0335078D01*
Y0327457D01*
X0510858Y0327067D01*
X0511079Y0326736D01*
X0518536Y0319279D01*
X0518867Y0319058D01*
X0519257Y0318980D01*
X0569381D01*
X0569713Y0318605D01*
X0569561Y0318453D01*
X0570640Y0317373D01*
Y0311325D01*
X0561779Y0302464D01*
X0561558Y0302133D01*
X0561480Y0301743D01*
Y0282267D01*
X0561558Y0281877D01*
X0561779Y0281546D01*
X0586779Y0256547D01*
X0587110Y0256326D01*
X0587500Y0256248D01*
X0592095D01*
Y0255587D01*
X0592362D01*
Y0254047D01*
X0560779Y0222464D01*
X0560558Y0222133D01*
X0560480Y0221743D01*
Y0204560D01*
X0560558Y0204170D01*
X0560779Y0203839D01*
X0564655Y0199964D01*
Y0199641D01*
X0563575Y0198562D01*
X0563575Y0198562D01*
X0563575Y0198562D01*
X0563110Y0198520D01*
X0523000D01*
X0522610Y0198442D01*
X0522279Y0198221D01*
X0504728Y0180670D01*
X0504507Y0180339D01*
X0504429Y0179949D01*
Y0178405D01*
X0503087D01*
Y0178138D01*
X0502547D01*
X0477231Y0203453D01*
X0476901Y0203674D01*
X0476510Y0203752D01*
X0448856D01*
X0448250Y0204358D01*
X0448439Y0204547D01*
X0446062Y0206925D01*
X0445873Y0206735D01*
X0442520Y0210088D01*
Y0215743D01*
X0442442Y0216133D01*
X0442221Y0216464D01*
X0430520Y0228165D01*
Y0259500D01*
X0430442Y0259890D01*
X0430221Y0260221D01*
X0425906Y0264536D01*
Y0265578D01*
X0429308Y0268980D01*
X0470137D01*
X0470274Y0268774D01*
X0470837Y0268399D01*
X0471500Y0268267D01*
X0472163Y0268399D01*
X0472726Y0268774D01*
X0473101Y0269337D01*
X0473233Y0270000D01*
X0473101Y0270663D01*
X0472726Y0271226D01*
X0472689Y0271250D01*
Y0271750D01*
X0472726Y0271774D01*
X0473101Y0272337D01*
X0473233Y0273000D01*
X0473101Y0273663D01*
X0472726Y0274226D01*
X0472364Y0274467D01*
Y0275032D01*
X0472726Y0275274D01*
X0473101Y0275837D01*
X0473233Y0276500D01*
X0473101Y0277163D01*
X0472726Y0277726D01*
X0472163Y0278101D01*
X0471500Y0278233D01*
X0470837Y0278101D01*
X0470274Y0277726D01*
X0470137Y0277520D01*
X0429444D01*
X0429054Y0277442D01*
X0428723Y0277221D01*
X0418916Y0267413D01*
X0418213D01*
Y0264051D01*
X0421117D01*
X0421117Y0264051D01*
X0421338Y0263720D01*
X0425609Y0259449D01*
X0425402Y0258949D01*
X0418213D01*
Y0255587D01*
X0418480D01*
Y0254607D01*
X0418451Y0254601D01*
X0418334Y0254524D01*
X0417870D01*
X0417630Y0254524D01*
Y0254524D01*
X0417370D01*
Y0254524D01*
X0416886D01*
Y0253000D01*
X0415886D01*
Y0252000D01*
X0414402D01*
Y0251476D01*
X0415689D01*
X0415880Y0251014D01*
X0413019Y0248153D01*
X0412798Y0247822D01*
X0412729Y0247477D01*
X0411585Y0247249D01*
X0411033Y0247552D01*
X0410727Y0249568D01*
X0410185Y0255523D01*
X0410005Y0261500D01*
X0410185Y0267477D01*
X0410727Y0273432D01*
X0411033Y0275448D01*
X0411585Y0275751D01*
X0415408Y0274991D01*
X0416141Y0278674D01*
X0412164Y0279465D01*
X0411723Y0279794D01*
X0412142Y0281748D01*
X0412567Y0281978D01*
X0412698Y0281952D01*
X0416637Y0281169D01*
X0416699Y0281480D01*
X0421137D01*
X0421274Y0281274D01*
X0421837Y0280899D01*
X0422500Y0280767D01*
X0423163Y0280899D01*
X0423726Y0281274D01*
X0424101Y0281837D01*
X0424233Y0282500D01*
X0424101Y0283163D01*
X0423726Y0283726D01*
X0423163Y0284101D01*
X0422500Y0284233D01*
X0421837Y0284101D01*
X0421274Y0283726D01*
X0421137Y0283520D01*
X0417499D01*
X0417182Y0283906D01*
X0417370Y0284852D01*
X0413520Y0285618D01*
X0413135Y0286100D01*
X0414487Y0290951D01*
X0416438Y0296604D01*
X0418726Y0302129D01*
X0421344Y0307505D01*
X0423818Y0311892D01*
X0424431Y0311961D01*
X0427695Y0309780D01*
X0429782Y0312902D01*
X0426442Y0315134D01*
X0426332Y0315208D01*
X0426194Y0315672D01*
X0427279Y0317350D01*
X0427823Y0317270D01*
X0431195Y0315017D01*
X0432327Y0316712D01*
X0439846D01*
X0440315Y0316243D01*
X0440267Y0316000D01*
X0440399Y0315337D01*
X0440774Y0314774D01*
X0441337Y0314399D01*
X0442000Y0314267D01*
X0442663Y0314399D01*
X0443226Y0314774D01*
X0443601Y0315337D01*
X0443733Y0316000D01*
X0443601Y0316663D01*
X0443226Y0317226D01*
X0442663Y0317601D01*
X0442000Y0317733D01*
X0441757Y0317685D01*
X0441315Y0318127D01*
X0441303Y0318822D01*
X0441558Y0319076D01*
X0441502Y0319132D01*
X0442253Y0319884D01*
X0444241Y0317896D01*
X0446062Y0316075D01*
X0448439Y0318453D01*
X0446619Y0320273D01*
X0444809Y0322083D01*
X0443000Y0323892D01*
X0440622Y0321515D01*
X0440812Y0321326D01*
X0440060Y0320574D01*
X0439628Y0321006D01*
X0439459Y0321175D01*
X0439105Y0321529D01*
X0438932Y0321702D01*
X0437855Y0320624D01*
X0436778Y0319547D01*
X0436950Y0319374D01*
X0437074Y0319251D01*
X0437008Y0318751D01*
X0432367D01*
X0430040Y0320306D01*
X0429864Y0320910D01*
X0431073Y0322552D01*
X0434901Y0327146D01*
X0439000Y0331500D01*
X0443354Y0335599D01*
X0447948Y0339427D01*
X0449590Y0340636D01*
X0450194Y0340460D01*
X0452360Y0337218D01*
X0455483Y0339305D01*
X0453230Y0342677D01*
X0453151Y0343221D01*
X0454828Y0344306D01*
X0455292Y0344168D01*
X0455366Y0344058D01*
X0457597Y0340718D01*
X0458638Y0341413D01*
X0461897Y0338154D01*
X0461767Y0337500D01*
X0461899Y0336837D01*
X0462274Y0336274D01*
X0462837Y0335899D01*
X0463500Y0335767D01*
X0464163Y0335899D01*
X0464726Y0336274D01*
X0465101Y0336837D01*
X0465233Y0337500D01*
X0465101Y0338163D01*
X0464726Y0338726D01*
X0464163Y0339101D01*
X0463752Y0339183D01*
X0460645Y0342290D01*
X0460694Y0342787D01*
X0460720Y0342805D01*
X0458539Y0346069D01*
X0458608Y0346682D01*
X0462995Y0349156D01*
X0468371Y0351774D01*
X0473896Y0354062D01*
X0479549Y0356013D01*
X0484400Y0357365D01*
X0484882Y0356980D01*
X0485648Y0353130D01*
X0489331Y0353863D01*
X0488548Y0357802D01*
X0488522Y0357933D01*
X0488753Y0358358D01*
X0490706Y0358777D01*
X0491035Y0358336D01*
D02*
G37*
%LPC*%
G36*
X0603598Y0269000D02*
X0603114D01*
Y0268476D01*
X0603598D01*
Y0269000D01*
D02*
G37*
G36*
X0603520Y0263214D02*
X0602864Y0263084D01*
X0602308Y0262712D01*
X0601936Y0262156D01*
X0601919Y0262072D01*
X0601862Y0262061D01*
Y0261785D01*
X0601805Y0261500D01*
X0601862Y0261215D01*
Y0260939D01*
X0601919Y0260928D01*
X0601936Y0260844D01*
X0602308Y0260288D01*
X0602864Y0259916D01*
X0603520Y0259786D01*
X0604176Y0259916D01*
X0604732Y0260288D01*
X0605103Y0260844D01*
X0605234Y0261500D01*
X0605103Y0262156D01*
X0604732Y0262712D01*
X0604176Y0263084D01*
X0603520Y0263214D01*
D02*
G37*
G36*
X0603114Y0271524D02*
Y0271000D01*
X0603598D01*
Y0271524D01*
X0603114D01*
D02*
G37*
G36*
X0570588Y0333695D02*
X0570246Y0333352D01*
X0570616Y0332982D01*
X0570958Y0333324D01*
X0570588Y0333695D01*
D02*
G37*
G36*
X0575836Y0330049D02*
X0575180Y0329919D01*
X0574623Y0329548D01*
X0574252Y0328991D01*
X0574122Y0328335D01*
X0574252Y0327680D01*
X0574299Y0327608D01*
X0574267Y0327560D01*
X0574462Y0327365D01*
X0574623Y0327123D01*
X0574865Y0326962D01*
X0575060Y0326767D01*
X0575108Y0326800D01*
X0575180Y0326752D01*
X0575836Y0326622D01*
X0576491Y0326752D01*
X0577047Y0327123D01*
X0577419Y0327680D01*
X0577550Y0328335D01*
X0577419Y0328991D01*
X0577047Y0329548D01*
X0576491Y0329919D01*
X0575836Y0330049D01*
D02*
G37*
G36*
X0568803Y0335479D02*
X0568461Y0335137D01*
X0568831Y0334766D01*
X0569174Y0335109D01*
X0568803Y0335479D01*
D02*
G37*
G36*
X0575836Y0196379D02*
X0575180Y0196248D01*
X0575108Y0196201D01*
X0575060Y0196233D01*
X0574865Y0196038D01*
X0574623Y0195877D01*
X0574462Y0195635D01*
X0574267Y0195440D01*
X0574299Y0195392D01*
X0574252Y0195320D01*
X0574122Y0194665D01*
X0574252Y0194009D01*
X0574623Y0193453D01*
X0575180Y0193081D01*
X0575836Y0192950D01*
X0576491Y0193081D01*
X0577047Y0193453D01*
X0577419Y0194009D01*
X0577550Y0194665D01*
X0577419Y0195320D01*
X0577047Y0195877D01*
X0576491Y0196248D01*
X0575836Y0196379D01*
D02*
G37*
G36*
X0580852Y0200255D02*
X0580482Y0199884D01*
X0580824Y0199542D01*
X0581194Y0199912D01*
X0580852Y0200255D01*
D02*
G37*
G36*
X0582636Y0202039D02*
X0582266Y0201669D01*
X0582609Y0201326D01*
X0582979Y0201697D01*
X0582636Y0202039D01*
D02*
G37*
G36*
X0502024Y0356098D02*
X0501500D01*
Y0355614D01*
X0502024D01*
Y0356098D01*
D02*
G37*
G36*
X0499500D02*
X0498976D01*
Y0355614D01*
X0499500D01*
Y0356098D01*
D02*
G37*
G36*
X0509000Y0357734D02*
X0508344Y0357603D01*
X0507788Y0357232D01*
X0507416Y0356676D01*
X0507286Y0356020D01*
X0507416Y0355364D01*
X0507788Y0354808D01*
X0508344Y0354436D01*
X0508428Y0354419D01*
X0508439Y0354362D01*
X0508715D01*
X0509000Y0354306D01*
X0509285Y0354362D01*
X0509561D01*
X0509572Y0354419D01*
X0509656Y0354436D01*
X0510212Y0354808D01*
X0510584Y0355364D01*
X0510714Y0356020D01*
X0510584Y0356676D01*
X0510212Y0357232D01*
X0509656Y0357603D01*
X0509000Y0357734D01*
D02*
G37*
G36*
X0519024Y0167386D02*
X0518500D01*
Y0166902D01*
X0519024D01*
Y0167386D01*
D02*
G37*
G36*
X0516500D02*
X0515976D01*
Y0166902D01*
X0516500D01*
Y0167386D01*
D02*
G37*
G36*
X0509000Y0168695D02*
X0508715Y0168638D01*
X0508439D01*
X0508428Y0168581D01*
X0508344Y0168564D01*
X0507788Y0168192D01*
X0507416Y0167636D01*
X0507286Y0166980D01*
X0507416Y0166324D01*
X0507788Y0165768D01*
X0508344Y0165397D01*
X0509000Y0165266D01*
X0509656Y0165397D01*
X0510212Y0165768D01*
X0510584Y0166324D01*
X0510714Y0166980D01*
X0510584Y0167636D01*
X0510212Y0168192D01*
X0509656Y0168564D01*
X0509572Y0168581D01*
X0509561Y0168638D01*
X0509285D01*
X0509000Y0168695D01*
D02*
G37*
G36*
X0442165Y0196379D02*
X0441509Y0196248D01*
X0440952Y0195877D01*
X0440581Y0195320D01*
X0440450Y0194665D01*
X0440581Y0194009D01*
X0440952Y0193453D01*
X0441509Y0193081D01*
X0442165Y0192950D01*
X0442820Y0193081D01*
X0443376Y0193453D01*
X0443748Y0194009D01*
X0443879Y0194665D01*
X0443748Y0195320D01*
X0443701Y0195392D01*
X0443733Y0195440D01*
X0443538Y0195635D01*
X0443377Y0195877D01*
X0443135Y0196038D01*
X0442940Y0196233D01*
X0442892Y0196201D01*
X0442820Y0196248D01*
X0442165Y0196379D01*
D02*
G37*
G36*
X0447384Y0190018D02*
X0447042Y0189676D01*
X0447412Y0189305D01*
X0447755Y0189648D01*
X0447384Y0190018D01*
D02*
G37*
G36*
X0449169Y0188234D02*
X0448826Y0187891D01*
X0449197Y0187521D01*
X0449539Y0187864D01*
X0449169Y0188234D01*
D02*
G37*
G36*
X0474767Y0257233D02*
X0474103Y0257101D01*
X0473541Y0256726D01*
X0473165Y0256163D01*
X0473033Y0255500D01*
X0473082Y0255257D01*
X0452344Y0234520D01*
X0444229D01*
X0444101Y0235163D01*
X0443726Y0235726D01*
X0443163Y0236101D01*
X0442500Y0236233D01*
X0441837Y0236101D01*
X0441274Y0235726D01*
X0440899Y0235163D01*
X0440767Y0234500D01*
X0440860Y0234033D01*
X0440851Y0234014D01*
X0440486Y0233649D01*
X0440467Y0233641D01*
X0440000Y0233733D01*
X0439337Y0233601D01*
X0438774Y0233226D01*
X0438399Y0232663D01*
X0438267Y0232000D01*
X0438399Y0231337D01*
X0438774Y0230774D01*
X0439337Y0230399D01*
X0440000Y0230267D01*
X0440663Y0230399D01*
X0441226Y0230774D01*
X0441363Y0230980D01*
X0453500D01*
X0453890Y0231058D01*
X0454221Y0231279D01*
X0473646Y0250704D01*
X0474103Y0250399D01*
X0474767Y0250267D01*
X0475430Y0250399D01*
X0475992Y0250774D01*
X0476368Y0251337D01*
X0476500Y0252000D01*
X0476368Y0252663D01*
X0475992Y0253226D01*
X0475630Y0253467D01*
Y0254032D01*
X0475992Y0254274D01*
X0476368Y0254837D01*
X0476500Y0255500D01*
X0476368Y0256163D01*
X0475992Y0256726D01*
X0475430Y0257101D01*
X0474767Y0257233D01*
D02*
G37*
G36*
X0414886Y0254524D02*
X0414402D01*
Y0254000D01*
X0414886D01*
Y0254524D01*
D02*
G37*
G36*
X0442165Y0330049D02*
X0441509Y0329919D01*
X0440952Y0329548D01*
X0440581Y0328991D01*
X0440450Y0328335D01*
X0440581Y0327680D01*
X0440952Y0327123D01*
X0441509Y0326752D01*
X0442165Y0326622D01*
X0442820Y0326752D01*
X0442892Y0326800D01*
X0442940Y0326767D01*
X0443135Y0326962D01*
X0443377Y0327123D01*
X0443538Y0327365D01*
X0443733Y0327560D01*
X0443701Y0327608D01*
X0443748Y0327680D01*
X0443879Y0328335D01*
X0443748Y0328991D01*
X0443376Y0329548D01*
X0442820Y0329919D01*
X0442165Y0330049D01*
D02*
G37*
G36*
X0414480Y0263214D02*
X0413824Y0263084D01*
X0413268Y0262712D01*
X0412897Y0262156D01*
X0412766Y0261500D01*
X0412897Y0260844D01*
X0413268Y0260288D01*
X0413824Y0259916D01*
X0414480Y0259786D01*
X0415136Y0259916D01*
X0415692Y0260288D01*
X0416064Y0260844D01*
X0416081Y0260928D01*
X0416138Y0260939D01*
Y0261215D01*
X0416194Y0261500D01*
X0416138Y0261785D01*
Y0262061D01*
X0416081Y0262072D01*
X0416064Y0262156D01*
X0415692Y0262712D01*
X0415136Y0263084D01*
X0414480Y0263214D01*
D02*
G37*
G36*
X0437176Y0323458D02*
X0436805Y0323088D01*
X0437148Y0322745D01*
X0437518Y0323116D01*
X0437176Y0323458D01*
D02*
G37*
G36*
X0435391Y0321674D02*
X0435021Y0321303D01*
X0435363Y0320961D01*
X0435734Y0321331D01*
X0435391Y0321674D01*
D02*
G37*
G36*
X0527000Y0302733D02*
X0526337Y0302601D01*
X0525774Y0302226D01*
X0525399Y0301663D01*
X0525267Y0301000D01*
X0525399Y0300337D01*
X0525774Y0299774D01*
X0526337Y0299399D01*
X0527000Y0299267D01*
X0527663Y0299399D01*
X0528226Y0299774D01*
X0528363Y0299980D01*
X0529932D01*
X0541681Y0288231D01*
X0541633Y0287988D01*
X0541765Y0287325D01*
X0542140Y0286763D01*
X0542703Y0286387D01*
X0543366Y0286255D01*
X0544029Y0286387D01*
X0544592Y0286763D01*
X0544968Y0287325D01*
X0545099Y0287988D01*
X0544968Y0288651D01*
X0544592Y0289214D01*
X0544029Y0289590D01*
X0543366Y0289721D01*
X0543123Y0289673D01*
X0531075Y0301721D01*
X0530745Y0301942D01*
X0530354Y0302020D01*
X0528363D01*
X0528226Y0302226D01*
X0527663Y0302601D01*
X0527000Y0302733D01*
D02*
G37*
%LPD*%
D24*
X0415886Y0253000D02*
D03*
X0419114D02*
D03*
X0602114Y0270000D02*
D03*
X0598886D02*
D03*
D28*
X0500500Y0354614D02*
D03*
Y0351386D02*
D03*
X0517500Y0168386D02*
D03*
Y0171614D02*
D03*
D30*
X0598886Y0271849D02*
X0604275Y0277238D01*
X0458006Y0343487D02*
X0463993Y0337500D01*
X0430513Y0317731D02*
X0440269D01*
X0511800Y0335500D02*
Y0344450D01*
X0441500Y0209666D02*
X0448434Y0202732D01*
X0510800Y0336500D02*
X0511800Y0335500D01*
Y0334461D02*
Y0335500D01*
Y0327457D02*
Y0334461D01*
X0508500Y0336500D02*
X0510800D01*
X0511800Y0344450D02*
X0513232Y0345882D01*
X0510300Y0340800D02*
Y0346332D01*
X0496052Y0326552D02*
X0510300Y0340800D01*
Y0346332D02*
X0512409Y0348441D01*
X0513300Y0341921D02*
X0516000Y0344621D01*
X0513300Y0328079D02*
Y0341921D01*
X0514800Y0341300D02*
X0517500Y0344000D01*
X0514800Y0328700D02*
Y0341300D01*
X0497052Y0325052D02*
X0508500Y0336500D01*
X0566453Y0196000D02*
X0568066Y0197613D01*
X0440000Y0207547D02*
X0446315Y0201232D01*
X0429500Y0227743D02*
Y0259500D01*
X0424618Y0264382D02*
X0429500Y0259500D01*
X0424618Y0264382D02*
Y0265732D01*
X0428000Y0227121D02*
Y0258500D01*
X0422059Y0264441D02*
X0428000Y0258500D01*
X0422059Y0264441D02*
Y0265732D01*
X0446315Y0201232D02*
X0475889D01*
X0502562Y0174559D01*
X0448434Y0202732D02*
X0476510D01*
X0502125Y0177118D01*
X0523621Y0196000D02*
X0566453D01*
X0506949Y0175917D02*
Y0179327D01*
X0523621Y0196000D01*
X0523000Y0197500D02*
X0564334D01*
X0505449Y0179949D02*
X0523000Y0197500D01*
X0505449Y0177799D02*
Y0179949D01*
X0505591Y0174559D02*
X0506949Y0175917D01*
X0504768Y0174559D02*
X0505591D01*
X0504768Y0177118D02*
X0505449Y0177799D01*
X0561500Y0221743D02*
X0593382Y0253625D01*
X0561500Y0204560D02*
Y0221743D01*
Y0204560D02*
X0565674Y0200386D01*
Y0198840D02*
Y0200386D01*
X0563000Y0221121D02*
X0595941Y0254062D01*
X0563000Y0205182D02*
Y0221121D01*
Y0205182D02*
X0568066Y0200115D01*
X0587500Y0257268D02*
X0593382D01*
X0562500Y0282267D02*
Y0301743D01*
X0587389Y0259500D02*
X0595000D01*
X0564000Y0282889D02*
X0587389Y0259500D01*
X0564000Y0282889D02*
Y0301121D01*
X0562500Y0282267D02*
X0587500Y0257268D01*
X0595000Y0259500D02*
X0595941Y0258559D01*
Y0257268D02*
Y0258559D01*
X0573500Y0295007D02*
X0590987Y0312494D01*
X0519793Y0321586D02*
X0572195D01*
X0513300Y0328079D02*
X0519793Y0321586D01*
X0572195D02*
X0573469Y0320312D01*
X0519257Y0320000D02*
X0569834D01*
X0571660Y0318174D01*
X0511800Y0327457D02*
X0519257Y0320000D01*
X0573469Y0319984D02*
Y0320312D01*
X0453218Y0325052D02*
X0497052D01*
X0512409Y0348441D02*
X0513232D01*
X0451099Y0326552D02*
X0496052D01*
X0452326Y0324160D02*
X0453218Y0325052D01*
X0489500Y0328500D02*
X0504768Y0343768D01*
X0449428Y0328500D02*
X0489500D01*
X0571660Y0310902D02*
Y0318174D01*
X0562500Y0301743D02*
X0571660Y0310902D01*
X0448707Y0327779D02*
X0449428Y0328500D01*
X0564334Y0197500D02*
X0565674Y0198840D01*
X0504768Y0343768D02*
Y0345882D01*
X0450516Y0325969D02*
X0451099Y0326552D01*
X0574052Y0311173D02*
Y0319438D01*
X0564000Y0301121D02*
X0574052Y0311173D01*
X0516000Y0344621D02*
Y0347379D01*
X0517500Y0344000D02*
Y0348000D01*
X0514938Y0348441D02*
X0516000Y0347379D01*
X0513232Y0348441D02*
X0514938D01*
X0514500Y0351000D02*
X0517500Y0348000D01*
X0513232Y0351000D02*
X0514500D01*
X0593382Y0253625D02*
Y0257268D01*
X0595941Y0254062D02*
Y0257268D01*
X0568066Y0197613D02*
Y0200115D01*
X0514800Y0328700D02*
X0519340Y0324160D01*
X0565674D01*
X0576500Y0311500D02*
Y0320572D01*
X0575279Y0321793D02*
X0576500Y0320572D01*
X0565500Y0300500D02*
X0576500Y0311500D01*
X0565500Y0287500D02*
Y0300500D01*
Y0287500D02*
X0587268Y0265732D01*
X0593382D01*
X0598500Y0254500D02*
Y0257268D01*
X0569500Y0225500D02*
X0598500Y0254500D01*
X0569500Y0206985D02*
Y0225500D01*
Y0206985D02*
X0571660Y0204826D01*
X0502562Y0174559D02*
X0504768D01*
X0502125Y0177118D02*
X0504768D01*
X0429500Y0227743D02*
X0441500Y0215743D01*
Y0209666D02*
Y0215743D01*
X0440000Y0207547D02*
Y0215121D01*
X0428000Y0227121D02*
X0440000Y0215121D01*
X0503000Y0172000D02*
X0504768D01*
X0476160Y0198840D02*
X0503000Y0172000D01*
X0452326Y0198840D02*
X0476160D01*
X0530614Y0194500D02*
X0568572D01*
X0513232Y0177118D02*
X0530614Y0194500D01*
X0568572D02*
X0569293Y0195221D01*
X0438500Y0205428D02*
X0442721Y0201207D01*
X0438500Y0205428D02*
Y0214500D01*
X0425214Y0227786D02*
X0438500Y0214500D01*
X0425214Y0227786D02*
Y0256672D01*
X0424618Y0257268D02*
X0425214Y0256672D01*
X0573469Y0203016D02*
X0575279Y0201207D01*
X0595941Y0265732D02*
X0598500D01*
X0569293Y0327779D02*
X0569293D01*
X0566548Y0330524D02*
X0569293Y0327779D01*
X0567484Y0325969D02*
X0569293Y0327779D01*
X0504768Y0348441D02*
Y0351000D01*
X0442721Y0321793D02*
X0444531Y0319984D01*
X0419500Y0257268D02*
X0422059D01*
X0419500Y0253386D02*
Y0257268D01*
X0419114Y0253000D02*
X0419500Y0253386D01*
X0439976Y0319049D02*
X0442721Y0321793D01*
X0439431Y0319049D02*
X0439976D01*
X0500886Y0351000D02*
X0504768D01*
X0500500Y0351386D02*
X0500886Y0351000D01*
X0566548Y0330524D02*
Y0331069D01*
X0598500Y0265732D02*
Y0269614D01*
X0598886Y0270000D01*
X0451451Y0191931D02*
Y0192476D01*
X0448707Y0195221D02*
X0451451Y0192476D01*
X0517114Y0172000D02*
X0517500Y0171614D01*
X0513232Y0172000D02*
X0517114D01*
X0575279Y0201207D02*
X0578024Y0203952D01*
X0578569D01*
X0513232Y0172000D02*
Y0174559D01*
X0448707Y0195221D02*
X0450516Y0197031D01*
X0419500Y0265732D02*
Y0266556D01*
X0429444Y0276500D01*
X0471500D01*
X0422059Y0265732D02*
Y0266556D01*
X0428503Y0273000D01*
X0471500D01*
X0440269Y0317731D02*
X0442000Y0316000D01*
X0463500Y0337500D02*
X0463993D01*
X0424618Y0265732D02*
X0428886Y0270000D01*
X0471500D01*
X0414969Y0283415D02*
X0415884Y0282500D01*
X0422500D01*
X0413740Y0245763D02*
Y0247432D01*
X0439431Y0318569D02*
X0440269Y0317731D01*
X0439431Y0318569D02*
Y0319049D01*
X0499500Y0350386D02*
Y0350523D01*
Y0342000D02*
Y0350386D01*
X0493263Y0356760D02*
X0499500Y0350523D01*
Y0350386D02*
X0500500Y0351386D01*
X0530915Y0344415D02*
Y0355531D01*
X0517000Y0330500D02*
X0530915Y0344415D01*
X0555744Y0330500D02*
X0565979D01*
X0517000D02*
X0555744D01*
X0565231Y0339987D01*
X0565979Y0330500D02*
X0566548Y0331069D01*
X0598886Y0270000D02*
Y0271849D01*
X0586500Y0270000D02*
X0598886D01*
X0602447Y0239000D02*
X0603031Y0239585D01*
X0586500Y0239000D02*
X0602447D01*
X0587325Y0205431D02*
X0587487Y0205269D01*
X0578569Y0205431D02*
X0587325D01*
X0578569Y0203952D02*
Y0205431D01*
X0572000Y0212000D02*
X0578569Y0205431D01*
X0559987Y0179513D02*
X0559994D01*
X0550000Y0189500D02*
X0559987Y0179513D01*
X0519363Y0171614D02*
X0524737Y0166240D01*
X0517500Y0171614D02*
X0519363D01*
X0517500D02*
X0518000Y0172114D01*
Y0178500D01*
X0487500Y0167884D02*
Y0178500D01*
X0487085Y0167469D02*
X0487500Y0167884D01*
X0451451Y0191931D02*
X0452769Y0190614D01*
Y0183013D02*
Y0190614D01*
X0419114Y0252806D02*
Y0253000D01*
X0413740Y0247432D02*
X0419114Y0252806D01*
X0527000Y0301000D02*
X0530354D01*
X0543366Y0287988D01*
X0416553Y0241169D02*
Y0245553D01*
X0414969Y0239585D02*
X0416553Y0241169D01*
Y0245553D02*
X0420500Y0249500D01*
X0442500Y0234500D02*
X0443500Y0233500D01*
X0452767D02*
X0474767Y0255500D01*
X0440000Y0232000D02*
X0453500D01*
X0473500Y0252000D01*
X0474767D01*
X0443500Y0233500D02*
X0452767D01*
X0427013Y0209878D02*
Y0210506D01*
Y0209878D02*
X0432122D01*
X0435000Y0207000D01*
D31*
X0442165Y0328335D02*
D03*
X0509000Y0356020D02*
D03*
X0575836Y0328335D02*
D03*
X0603520Y0261500D02*
D03*
X0575836Y0194665D02*
D03*
X0509000Y0166980D02*
D03*
X0442165Y0194665D02*
D03*
X0414480Y0261500D02*
D03*
D32*
X0532563Y0309500D02*
D03*
X0536500D02*
D03*
X0540437D02*
D03*
X0532563Y0313437D02*
D03*
X0536500D02*
D03*
X0540437D02*
D03*
X0532563Y0305563D02*
D03*
X0536500D02*
D03*
X0540437D02*
D03*
X0428000Y0264500D02*
D03*
X0422000Y0261000D02*
D03*
X0449500Y0205000D02*
D03*
X0447000Y0199000D02*
D03*
X0505000Y0183000D02*
D03*
X0509500Y0178500D02*
D03*
X0559000Y0205500D02*
D03*
X0566000D02*
D03*
X0582000Y0259500D02*
D03*
X0586500Y0263500D02*
D03*
X0560000Y0299500D02*
D03*
X0568500D02*
D03*
X0573500Y0295007D02*
D03*
X0509500Y0334000D02*
D03*
X0507000Y0341500D02*
D03*
X0471500Y0276500D02*
D03*
Y0273000D02*
D03*
X0442000Y0316000D02*
D03*
X0463500Y0337500D02*
D03*
X0471500Y0270000D02*
D03*
X0422500Y0282500D02*
D03*
X0499500Y0342000D02*
D03*
X0559994Y0343487D02*
D03*
X0517000Y0330500D02*
D03*
X0586500Y0270000D02*
D03*
Y0239000D02*
D03*
X0572000Y0212000D02*
D03*
X0550000Y0189500D02*
D03*
X0518000Y0178500D02*
D03*
X0487500D02*
D03*
X0413740Y0277237D02*
D03*
X0543366Y0287988D02*
D03*
X0527000Y0301000D02*
D03*
X0420500Y0249500D02*
D03*
X0436618Y0225890D02*
D03*
X0430973Y0212078D02*
D03*
X0426840Y0222056D02*
D03*
X0423014Y0231295D02*
D03*
X0418900Y0241225D02*
D03*
X0455500Y0252000D02*
D03*
Y0247500D02*
D03*
Y0243500D02*
D03*
X0458500Y0258350D02*
D03*
X0481000Y0240500D02*
D03*
X0520000Y0233500D02*
D03*
X0537000Y0242000D02*
D03*
X0549000Y0236000D02*
D03*
X0537000Y0265500D02*
D03*
X0548000Y0264000D02*
D03*
X0551500Y0287500D02*
D03*
X0524000Y0289500D02*
D03*
X0495000Y0294000D02*
D03*
X0487000Y0289500D02*
D03*
X0481000Y0265500D02*
D03*
X0476500Y0248500D02*
D03*
X0442500Y0234500D02*
D03*
X0440000Y0232000D02*
D03*
X0474767Y0252000D02*
D03*
Y0255500D02*
D03*
X0510500Y0223500D02*
D03*
X0543750Y0241850D02*
D03*
X0553250Y0258150D02*
D03*
X0419114Y0253000D02*
D03*
X0451451Y0191931D02*
D03*
X0435000Y0207000D02*
D03*
X0430513Y0205269D02*
D03*
X0458006Y0179513D02*
D03*
X0493263Y0166240D02*
D03*
X0530915Y0167469D02*
D03*
X0565231Y0183013D02*
D03*
X0590987Y0210506D02*
D03*
X0604260Y0245763D02*
D03*
X0603031Y0283415D02*
D03*
X0587487Y0317731D02*
D03*
X0524737Y0356760D02*
D03*
X0487085Y0355531D02*
D03*
X0452769Y0339987D02*
D03*
X0427013Y0312494D02*
D03*
X0534000Y0290500D02*
D03*
X0544500Y0295000D02*
D03*
D33*
X0444822Y0328335D02*
G03*
X0444822Y0328335I-0002657J0000000D01*
G01*
X0511657Y0356020D02*
G03*
X0511657Y0356020I-0002657J0000000D01*
G01*
X0578493Y0328335D02*
G03*
X0578493Y0328335I-0002657J0000000D01*
G01*
X0606177Y0261500D02*
G03*
X0606177Y0261500I-0002657J0000000D01*
G01*
X0578493Y0194665D02*
G03*
X0578493Y0194665I-0002657J0000000D01*
G01*
X0511657Y0166980D02*
G03*
X0511657Y0166980I-0002657J0000000D01*
G01*
X0444822Y0194665D02*
G03*
X0444822Y0194665I-0002657J0000000D01*
G01*
X0417138Y0261500D02*
G03*
X0417138Y0261500I-0002657J0000000D01*
G01*
D34*
X0452326Y0324160D02*
D03*
X0450516Y0325969D02*
D03*
X0448707Y0327779D02*
D03*
X0442721Y0321793D02*
D03*
X0444531Y0319984D02*
D03*
X0446340Y0318174D02*
D03*
X0565674Y0198840D02*
D03*
X0567484Y0197031D02*
D03*
X0569293Y0195221D02*
D03*
X0575279Y0201207D02*
D03*
X0573469Y0203016D02*
D03*
X0571660Y0204826D02*
D03*
D35*
X0444044Y0326456D02*
D03*
X0509000Y0353362D02*
D03*
X0573956Y0326456D02*
D03*
X0600862Y0261500D02*
D03*
X0573956Y0196544D02*
D03*
X0509000Y0169638D02*
D03*
X0444044Y0196544D02*
D03*
X0417138Y0261500D02*
D03*
D36*
X0504768Y0345882D02*
D03*
Y0348441D02*
D03*
Y0351000D02*
D03*
X0513232D02*
D03*
Y0348441D02*
D03*
Y0345882D02*
D03*
Y0177118D02*
D03*
Y0174559D02*
D03*
Y0172000D02*
D03*
X0504768D02*
D03*
Y0174559D02*
D03*
Y0177118D02*
D03*
D37*
X0571660Y0318174D02*
D03*
X0573469Y0319984D02*
D03*
X0575279Y0321793D02*
D03*
X0569293Y0327779D02*
D03*
X0567484Y0325969D02*
D03*
X0565674Y0324160D02*
D03*
X0446340Y0204826D02*
D03*
X0444531Y0203016D02*
D03*
X0442721Y0201207D02*
D03*
X0448707Y0195221D02*
D03*
X0450516Y0197031D02*
D03*
X0452326Y0198840D02*
D03*
D38*
X0593382Y0265732D02*
D03*
X0595941D02*
D03*
X0598500D02*
D03*
Y0257268D02*
D03*
X0595941D02*
D03*
X0593382D02*
D03*
X0424618D02*
D03*
X0422059D02*
D03*
X0419500D02*
D03*
Y0265732D02*
D03*
X0422059D02*
D03*
X0424618D02*
D03*
D39*
X0413740Y0245763D02*
D03*
X0414969Y0239585D02*
D03*
X0604260Y0277237D02*
D03*
X0603031Y0283415D02*
D03*
D40*
X0414969D02*
D03*
X0413740Y0277237D02*
D03*
X0603031Y0239585D02*
D03*
X0604260Y0245763D02*
D03*
D41*
X0430513Y0317731D02*
D03*
X0427013Y0312494D02*
D03*
X0587487Y0205269D02*
D03*
X0590987Y0210506D02*
D03*
D42*
X0458006Y0343487D02*
D03*
X0452769Y0339987D02*
D03*
X0559994Y0179513D02*
D03*
X0565231Y0183013D02*
D03*
D43*
X0493263Y0356760D02*
D03*
X0487085Y0355531D02*
D03*
X0524737Y0166240D02*
D03*
X0530915Y0167469D02*
D03*
D44*
Y0355531D02*
D03*
X0524737Y0356760D02*
D03*
X0487085Y0167469D02*
D03*
X0493263Y0166240D02*
D03*
D45*
X0565231Y0339987D02*
D03*
X0559994Y0343487D02*
D03*
X0452769Y0183013D02*
D03*
X0458006Y0179513D02*
D03*
D46*
X0590987Y0312494D02*
D03*
X0587487Y0317731D02*
D03*
X0427013Y0210506D02*
D03*
X0430513Y0205269D02*
D03*
D47*
X0437148Y0321331D02*
D03*
X0439431Y0319049D02*
D03*
X0580852Y0201669D02*
D03*
X0578569Y0203952D02*
D03*
D48*
X0449169Y0189648D02*
D03*
X0451451Y0191931D02*
D03*
X0568831Y0333352D02*
D03*
X0566548Y0331069D02*
D03*
M02*
