G04 Layer_Color=48896*
%FSAX25Y25*%
%MOIN*%
G70*
G01*
G75*
%ADD30C,0.01000*%
%ADD53C,0.00394*%
%ADD54C,0.00500*%
D30*
X0484000Y0301500D02*
G03*
X0484000Y0301500I-0015000J0000000D01*
G01*
X0564000D02*
G03*
X0564000Y0301500I-0015000J0000000D01*
G01*
Y0221500D02*
G03*
X0564000Y0221500I-0015000J0000000D01*
G01*
X0484000D02*
G03*
X0484000Y0221500I-0015000J0000000D01*
G01*
D53*
X0434578Y0327013D02*
X0443487Y0335922D01*
X0434578Y0327013D02*
X0445992Y0315599D01*
X0454901Y0324508D01*
X0443487Y0335922D02*
X0454901Y0324508D01*
X0515299Y0344307D02*
Y0360449D01*
X0502701Y0344307D02*
X0515299D01*
X0502701D02*
Y0360449D01*
X0515299D01*
X0574513Y0335922D02*
X0583422Y0327013D01*
X0563099Y0324508D02*
X0574513Y0335922D01*
X0563099Y0324508D02*
X0572008Y0315599D01*
X0583422Y0327013D01*
X0591807Y0255201D02*
X0607949D01*
X0591807D02*
Y0267799D01*
X0607949D01*
Y0255201D02*
Y0267799D01*
X0574513Y0187078D02*
X0583422Y0195987D01*
X0572008Y0207401D02*
X0583422Y0195987D01*
X0563099Y0198492D02*
X0572008Y0207401D01*
X0563099Y0198492D02*
X0574513Y0187078D01*
X0502701Y0162551D02*
Y0178693D01*
X0515299D01*
Y0162551D02*
Y0178693D01*
X0502701Y0162551D02*
X0515299D01*
X0434578Y0195987D02*
X0443487Y0187078D01*
X0454901Y0198492D01*
X0445992Y0207401D02*
X0454901Y0198492D01*
X0434578Y0195987D02*
X0445992Y0207401D01*
X0410051Y0267799D02*
X0426193D01*
Y0255201D02*
Y0267799D01*
X0410051Y0255201D02*
X0426193D01*
X0410051D02*
Y0267799D01*
X0417151Y0240721D02*
X0417708Y0237922D01*
X0412517Y0239800D02*
X0413074Y0237000D01*
X0411000Y0247426D02*
X0411557Y0244626D01*
X0411000Y0247426D02*
X0415634Y0248347D01*
X0416191Y0245548D01*
X0413074Y0237000D02*
X0417708Y0237922D01*
X0412870Y0241557D02*
X0416153Y0242209D01*
X0412638Y0243135D02*
X0414511Y0241883D01*
X0415764Y0243757D01*
X0412656Y0243139D02*
X0415745Y0243753D01*
X0415634Y0274653D02*
X0416191Y0277452D01*
X0411000Y0275574D02*
X0411557Y0278374D01*
X0412517Y0283200D02*
X0413074Y0286000D01*
X0417708Y0285078D01*
X0417151Y0282279D02*
X0417708Y0285078D01*
X0411000Y0275574D02*
X0415634Y0274653D01*
X0412556Y0279862D02*
X0415838Y0279209D01*
X0412945Y0281409D02*
X0414197Y0279535D01*
X0416071Y0280788D01*
X0412963Y0281406D02*
X0416052Y0280791D01*
X0427774Y0309381D02*
X0429360Y0311754D01*
X0423846Y0312006D02*
X0425432Y0314379D01*
X0428166Y0318471D02*
X0429752Y0320844D01*
X0433680Y0318219D01*
X0432094Y0315846D02*
X0433680Y0318219D01*
X0423846Y0312006D02*
X0427774Y0309381D01*
X0426924Y0315372D02*
X0429706Y0313512D01*
X0427876Y0316653D02*
X0428315Y0314442D01*
X0430526Y0314882D01*
X0427891Y0316642D02*
X0430510Y0314892D01*
X0452281Y0336820D02*
X0454654Y0338406D01*
X0449656Y0340748D02*
X0452029Y0342334D01*
X0456121Y0345068D02*
X0458494Y0346654D01*
X0461119Y0342726D01*
X0458746Y0341140D02*
X0461119Y0342726D01*
X0449656Y0340748D02*
X0452281Y0336820D01*
X0453788Y0342680D02*
X0455647Y0339898D01*
X0454717Y0341289D02*
X0455157Y0343499D01*
X0454717Y0341289D02*
X0456928Y0340849D01*
X0455167Y0343484D02*
X0456917Y0340865D01*
X0485422Y0352792D02*
X0488221Y0353349D01*
X0484500Y0357426D02*
X0487300Y0357982D01*
X0492126Y0358943D02*
X0494926Y0359500D01*
X0495848Y0354866D01*
X0493048Y0354309D02*
X0495848Y0354866D01*
X0484500Y0357426D02*
X0485422Y0352792D01*
X0489056Y0357630D02*
X0489709Y0354347D01*
X0489383Y0355989D02*
X0490635Y0357862D01*
X0489383Y0355989D02*
X0491257Y0354736D01*
X0490639Y0357844D02*
X0491253Y0354755D01*
X0522153Y0354866D02*
X0524952Y0354309D01*
X0523074Y0359500D02*
X0525874Y0358943D01*
X0530700Y0357982D02*
X0533500Y0357426D01*
X0532578Y0352792D02*
X0533500Y0357426D01*
X0529779Y0353349D02*
X0532578Y0352792D01*
X0522153Y0354866D02*
X0523074Y0359500D01*
X0526709Y0354662D02*
X0527362Y0357944D01*
X0527035Y0356303D02*
X0528909Y0357555D01*
X0527035Y0356303D02*
X0528288Y0354429D01*
X0528291Y0354448D02*
X0528906Y0357537D01*
X0556881Y0342726D02*
X0559254Y0341140D01*
X0559506Y0346654D02*
X0561879Y0345068D01*
X0565971Y0342334D02*
X0568344Y0340748D01*
X0565719Y0336820D02*
X0568344Y0340748D01*
X0563346Y0338406D02*
X0565719Y0336820D01*
X0556881Y0342726D02*
X0559506Y0346654D01*
X0561013Y0340793D02*
X0562872Y0343576D01*
X0561942Y0342185D02*
X0564153Y0342624D01*
X0561942Y0342185D02*
X0562382Y0339974D01*
X0562392Y0339990D02*
X0564142Y0342609D01*
X0584320Y0318219D02*
X0585906Y0315846D01*
X0588248Y0320844D02*
X0589834Y0318471D01*
X0592568Y0314379D02*
X0594154Y0312006D01*
X0590226Y0309381D02*
X0594154Y0312006D01*
X0588640Y0311754D02*
X0590226Y0309381D01*
X0584320Y0318219D02*
X0588248Y0320844D01*
X0587398Y0314853D02*
X0590180Y0316712D01*
X0588789Y0315783D02*
X0590999Y0315343D01*
X0588349Y0313572D02*
X0588789Y0315783D01*
X0588365Y0313583D02*
X0590984Y0315333D01*
X0600292Y0285078D02*
X0600849Y0282279D01*
X0604926Y0286000D02*
X0605482Y0283200D01*
X0606443Y0278374D02*
X0606999Y0275574D01*
X0602366Y0274653D02*
X0606999Y0275574D01*
X0601809Y0277452D02*
X0602366Y0274653D01*
X0600292Y0285078D02*
X0604926Y0286000D01*
X0601847Y0280791D02*
X0605129Y0281443D01*
X0603488Y0281117D02*
X0605363Y0279865D01*
X0602236Y0279243D02*
X0603488Y0281117D01*
X0602255Y0279247D02*
X0605344Y0279861D01*
X0601809Y0245548D02*
X0602366Y0248347D01*
X0606443Y0244626D02*
X0606999Y0247426D01*
X0604926Y0237000D02*
X0605482Y0239800D01*
X0600292Y0237922D02*
X0604926Y0237000D01*
X0600292Y0237922D02*
X0600849Y0240721D01*
X0602366Y0248347D02*
X0606999Y0247426D01*
X0602162Y0243791D02*
X0605444Y0243138D01*
X0603803Y0243465D02*
X0605055Y0241591D01*
X0601929Y0242212D02*
X0603803Y0243465D01*
X0601948Y0242209D02*
X0605037Y0241594D01*
X0588640Y0211246D02*
X0590226Y0213619D01*
X0592568Y0208621D02*
X0594154Y0210994D01*
X0588248Y0202156D02*
X0589834Y0204529D01*
X0584320Y0204781D02*
X0588248Y0202156D01*
X0584320Y0204781D02*
X0585906Y0207154D01*
X0590226Y0213619D02*
X0594154Y0210994D01*
X0588294Y0209488D02*
X0591076Y0207628D01*
X0589685Y0208558D02*
X0590125Y0206347D01*
X0587474Y0208118D02*
X0589685Y0208558D01*
X0587490Y0208108D02*
X0590109Y0206358D01*
X0563346Y0184594D02*
X0565719Y0186180D01*
X0565971Y0180666D02*
X0568344Y0182252D01*
X0559506Y0176346D02*
X0561879Y0177932D01*
X0556881Y0180274D02*
X0559506Y0176346D01*
X0556881Y0180274D02*
X0559254Y0181860D01*
X0565719Y0186180D02*
X0568344Y0182252D01*
X0562353Y0183102D02*
X0564213Y0180320D01*
X0562843Y0179501D02*
X0563283Y0181711D01*
X0561072Y0182151D02*
X0563283Y0181711D01*
X0561083Y0182135D02*
X0562833Y0179516D01*
X0529779Y0169651D02*
X0532578Y0170208D01*
X0530700Y0165017D02*
X0533500Y0165574D01*
X0523074Y0163500D02*
X0525874Y0164057D01*
X0522153Y0168134D02*
X0523074Y0163500D01*
X0522153Y0168134D02*
X0524952Y0168691D01*
X0532578Y0170208D02*
X0533500Y0165574D01*
X0528291Y0168653D02*
X0528943Y0165370D01*
X0527365Y0165138D02*
X0528617Y0167011D01*
X0526743Y0168264D02*
X0528617Y0167011D01*
X0526747Y0168245D02*
X0527361Y0165156D01*
X0493048Y0168691D02*
X0495848Y0168134D01*
X0492126Y0164057D02*
X0494926Y0163500D01*
X0484500Y0165574D02*
X0487300Y0165017D01*
X0484500Y0165574D02*
X0485422Y0170208D01*
X0488221Y0169651D01*
X0494926Y0163500D02*
X0495848Y0168134D01*
X0490638Y0165056D02*
X0491291Y0168338D01*
X0489091Y0165445D02*
X0490965Y0166697D01*
X0489712Y0168571D02*
X0490965Y0166697D01*
X0489094Y0165463D02*
X0489709Y0168552D01*
X0458746Y0181860D02*
X0461119Y0180274D01*
X0456121Y0177932D02*
X0458494Y0176346D01*
X0449656Y0182252D02*
X0452029Y0180666D01*
X0449656Y0182252D02*
X0452281Y0186180D01*
X0454654Y0184594D01*
X0458494Y0176346D02*
X0461119Y0180274D01*
X0455128Y0179424D02*
X0456987Y0182206D01*
X0453847Y0180376D02*
X0456058Y0180815D01*
X0455618Y0183026D02*
X0456058Y0180815D01*
X0453858Y0180391D02*
X0455608Y0183010D01*
X0432094Y0207154D02*
X0433680Y0204781D01*
X0428166Y0204529D02*
X0429752Y0202156D01*
X0423846Y0210994D02*
X0425432Y0208621D01*
X0423846Y0210994D02*
X0427774Y0213619D01*
X0429360Y0211246D01*
X0429752Y0202156D02*
X0433680Y0204781D01*
X0427820Y0206288D02*
X0430602Y0208147D01*
X0427001Y0207657D02*
X0429211Y0207217D01*
X0429651Y0209428D01*
X0427016Y0207667D02*
X0429635Y0209417D01*
D54*
X0437582Y0319483D02*
X0438996Y0320897D01*
X0499500Y0353000D02*
X0501500D01*
X0417500Y0254000D02*
X0417500Y0252000D01*
X0600500Y0269000D02*
Y0271000D01*
X0579004Y0202103D02*
X0580418Y0203517D01*
X0516500Y0170000D02*
X0518500D01*
X0449603Y0191496D02*
X0451017Y0190082D01*
X0566983Y0332918D02*
X0568397Y0331504D01*
X0426000Y0268500D02*
Y0270499D01*
X0425334Y0269833D01*
X0424667Y0270499D01*
Y0268500D01*
X0424001Y0270499D02*
Y0268500D01*
Y0269166D01*
X0422668Y0270499D01*
X0423667Y0269500D01*
X0422668Y0268500D01*
X0422001D02*
X0421335D01*
X0421668D01*
Y0270499D01*
X0422001Y0270166D01*
X0455500Y0325500D02*
X0456914Y0326914D01*
X0455971D01*
Y0327856D01*
X0454558Y0326443D01*
X0455500Y0328327D02*
X0454086Y0326914D01*
X0454558Y0327385D01*
Y0329270D01*
Y0327856D01*
X0453144D01*
X0453851Y0329506D02*
Y0329977D01*
X0453379Y0330448D01*
X0452908D01*
X0452672Y0330212D01*
Y0329741D01*
X0452201Y0329741D01*
X0451966Y0329506D01*
X0451966Y0329034D01*
X0452437Y0328563D01*
X0452908D01*
X0453144Y0328799D01*
Y0329270D01*
X0453615Y0329270D01*
X0453851Y0329506D01*
X0453144Y0329270D02*
X0452672Y0329741D01*
X0516000Y0344500D02*
X0517999D01*
X0517333Y0345166D01*
X0517999Y0345833D01*
X0516000D01*
X0517999Y0346499D02*
X0516000D01*
X0516666D01*
X0517999Y0347832D01*
X0517000Y0346833D01*
X0516000Y0347832D01*
X0517999Y0348499D02*
Y0349832D01*
X0517666D01*
X0516333Y0348499D01*
X0516000D01*
X0578000Y0317500D02*
X0576586Y0318914D01*
Y0317971D01*
X0575644D01*
X0577058Y0316558D01*
X0575173Y0317500D02*
X0576586Y0316086D01*
X0576115Y0316558D01*
X0574230D01*
X0575644D01*
Y0315144D01*
X0572816D02*
X0573523Y0315379D01*
X0574466D01*
X0574937Y0314908D01*
Y0314437D01*
X0574466Y0313966D01*
X0573994Y0313966D01*
X0573759Y0314201D01*
X0573759Y0314672D01*
X0574466Y0315379D01*
X0597500Y0252500D02*
Y0254499D01*
X0596834Y0253833D01*
X0596167Y0254499D01*
Y0252500D01*
X0595501Y0254499D02*
Y0252500D01*
Y0253166D01*
X0594168Y0254499D01*
X0595167Y0253500D01*
X0594168Y0252500D01*
X0592168Y0254499D02*
X0593501D01*
Y0253500D01*
X0592835Y0253833D01*
X0592502D01*
X0592168Y0253500D01*
Y0252833D01*
X0592502Y0252500D01*
X0593168D01*
X0593501Y0252833D01*
X0565000Y0192500D02*
X0566414Y0193914D01*
X0565471D01*
Y0194856D01*
X0564057Y0193442D01*
X0565000Y0195327D02*
X0563586Y0193914D01*
X0564057Y0194385D01*
Y0196270D01*
Y0194856D01*
X0562644D01*
X0561466Y0196034D02*
X0562879Y0197448D01*
Y0196034D01*
X0561937Y0196977D01*
X0500000Y0173500D02*
X0501999D01*
X0501333Y0174167D01*
X0501999Y0174833D01*
X0500000D01*
X0501999Y0175499D02*
X0500000D01*
X0500666D01*
X0501999Y0176832D01*
X0501000Y0175833D01*
X0500000Y0176832D01*
X0501666Y0177499D02*
X0501999Y0177832D01*
Y0178498D01*
X0501666Y0178832D01*
X0501333D01*
X0501000Y0178498D01*
Y0178165D01*
Y0178498D01*
X0500666Y0178832D01*
X0500333D01*
X0500000Y0178498D01*
Y0177832D01*
X0500333Y0177499D01*
X0445500Y0208000D02*
X0444086Y0209414D01*
Y0208471D01*
X0443144D01*
X0444558Y0207057D01*
X0442672Y0208000D02*
X0444086Y0206586D01*
X0443615Y0207057D01*
X0441730D01*
X0443144D01*
Y0205644D01*
X0441730Y0204230D02*
X0442672Y0205172D01*
X0440788D01*
X0440552Y0205408D01*
Y0205879D01*
X0441023Y0206351D01*
X0441494D01*
X0444236Y0315121D02*
X0444707D01*
X0445178Y0314649D01*
X0445178Y0314178D01*
X0444236Y0313236D01*
X0443764D01*
X0443293Y0313707D01*
X0443293Y0314178D01*
X0441644Y0315356D02*
X0442586Y0314414D01*
Y0316299D01*
X0442822Y0316534D01*
X0443293D01*
X0443764Y0316063D01*
X0443764Y0315592D01*
X0440230Y0316770D02*
X0441173Y0315827D01*
Y0317712D01*
X0441408Y0317948D01*
X0441879D01*
X0442351Y0317477D01*
Y0317006D01*
X0501166Y0346333D02*
X0501499Y0346000D01*
Y0345333D01*
X0501166Y0345000D01*
X0499833D01*
X0499500Y0345333D01*
Y0346000D01*
X0499833Y0346333D01*
X0499500Y0348332D02*
Y0346999D01*
X0500833Y0348332D01*
X0501166D01*
X0501499Y0347999D01*
Y0347333D01*
X0501166Y0346999D01*
X0499500Y0348999D02*
Y0349665D01*
Y0349332D01*
X0501499D01*
X0501166Y0348999D01*
X0425167Y0253666D02*
X0425500Y0253999D01*
X0426167D01*
X0426500Y0253666D01*
Y0252333D01*
X0426167Y0252000D01*
X0425500D01*
X0425167Y0252333D01*
X0423168Y0252000D02*
X0424501D01*
X0423168Y0253333D01*
Y0253666D01*
X0423501Y0253999D01*
X0424167D01*
X0424501Y0253666D01*
X0422501D02*
X0422168Y0253999D01*
X0421502D01*
X0421168Y0253666D01*
Y0252333D01*
X0421502Y0252000D01*
X0422168D01*
X0422501Y0252333D01*
Y0253666D01*
X0595667Y0270666D02*
X0596000Y0270999D01*
X0596667D01*
X0597000Y0270666D01*
Y0269333D01*
X0596667Y0269000D01*
X0596000D01*
X0595667Y0269333D01*
X0595001Y0269000D02*
X0594334D01*
X0594667D01*
Y0270999D01*
X0595001Y0270666D01*
X0593334Y0269333D02*
X0593001Y0269000D01*
X0592335D01*
X0592002Y0269333D01*
Y0270666D01*
X0592335Y0270999D01*
X0593001D01*
X0593334Y0270666D01*
Y0270333D01*
X0593001Y0270000D01*
X0592002D01*
X0576236Y0207121D02*
X0576707D01*
X0577178Y0206649D01*
X0577178Y0206178D01*
X0576236Y0205236D01*
X0575764D01*
X0575293Y0205707D01*
X0575293Y0206178D01*
X0574586Y0206414D02*
X0574115Y0206885D01*
X0574351Y0206649D01*
X0575764Y0208063D01*
X0575764Y0207592D01*
X0574586Y0208770D02*
X0574586Y0209241D01*
X0574115Y0209713D01*
X0573644D01*
X0573408Y0209477D01*
Y0209006D01*
X0572937Y0209006D01*
X0572701Y0208770D01*
X0572701Y0208299D01*
X0573173Y0207827D01*
X0573644D01*
X0573879Y0208063D01*
Y0208534D01*
X0574351Y0208534D01*
X0574586Y0208770D01*
X0573879Y0208534D02*
X0573408Y0209006D01*
X0518166Y0174833D02*
X0518499Y0174500D01*
Y0173833D01*
X0518166Y0173500D01*
X0516833D01*
X0516500Y0173833D01*
Y0174500D01*
X0516833Y0174833D01*
X0516500Y0175499D02*
Y0176166D01*
Y0175833D01*
X0518499D01*
X0518166Y0175499D01*
X0518499Y0177165D02*
Y0178498D01*
X0518166D01*
X0516833Y0177165D01*
X0516500D01*
X0454879Y0196236D02*
Y0196707D01*
X0455351Y0197178D01*
X0455822Y0197178D01*
X0456764Y0196236D01*
Y0195764D01*
X0456293Y0195293D01*
X0455822Y0195293D01*
X0455586Y0194586D02*
X0455115Y0194115D01*
X0455351Y0194351D01*
X0453937Y0195764D01*
X0454408Y0195764D01*
X0452052Y0193879D02*
X0452759Y0194115D01*
X0453701D01*
X0454173Y0193644D01*
Y0193173D01*
X0453701Y0192701D01*
X0453230Y0192701D01*
X0452994Y0192937D01*
X0452994Y0193408D01*
X0453701Y0194115D01*
X0563879Y0329236D02*
Y0329707D01*
X0564351Y0330178D01*
X0564822Y0330178D01*
X0565764Y0329236D01*
Y0328764D01*
X0565293Y0328293D01*
X0564822Y0328293D01*
X0564586Y0327586D02*
X0564115Y0327115D01*
X0564351Y0327351D01*
X0562937Y0328764D01*
X0563408Y0328764D01*
X0561052Y0326879D02*
X0561994Y0327822D01*
X0562701Y0327115D01*
X0561994Y0326879D01*
X0561759Y0326644D01*
Y0326172D01*
X0562230Y0325701D01*
X0562701Y0325701D01*
X0563172Y0326172D01*
Y0326644D01*
X0551000Y0184000D02*
Y0185999D01*
X0550334Y0185333D01*
X0549667Y0185999D01*
Y0184000D01*
X0549001D02*
X0548334D01*
X0548667D01*
Y0185333D01*
X0549001D01*
X0546002D02*
X0547001D01*
X0547334Y0185000D01*
Y0184333D01*
X0547001Y0184000D01*
X0546002D01*
X0545335Y0185333D02*
Y0184000D01*
Y0184667D01*
X0545002Y0185000D01*
X0544669Y0185333D01*
X0544336D01*
X0543003Y0184000D02*
X0542336D01*
X0542003Y0184333D01*
Y0185000D01*
X0542336Y0185333D01*
X0543003D01*
X0543336Y0185000D01*
Y0184333D01*
X0543003Y0184000D01*
X0541336Y0183334D02*
Y0185333D01*
X0540337D01*
X0540004Y0185000D01*
Y0184333D01*
X0540337Y0184000D01*
X0541336D01*
X0539337Y0185999D02*
Y0184000D01*
Y0185000D01*
X0539004Y0185333D01*
X0538337D01*
X0538004Y0185000D01*
Y0184000D01*
X0537005D02*
X0536338D01*
X0536005Y0184333D01*
Y0185000D01*
X0536338Y0185333D01*
X0537005D01*
X0537338Y0185000D01*
Y0184333D01*
X0537005Y0184000D01*
X0535338D02*
Y0185333D01*
X0534339D01*
X0534005Y0185000D01*
Y0184000D01*
X0532339D02*
X0533006D01*
X0533339Y0184333D01*
Y0185000D01*
X0533006Y0185333D01*
X0532339D01*
X0532006Y0185000D01*
Y0184667D01*
X0533339D01*
X0529340Y0184000D02*
Y0185333D01*
X0528674Y0185999D01*
X0528008Y0185333D01*
Y0184000D01*
Y0185000D01*
X0529340D01*
X0527341Y0185333D02*
Y0184000D01*
Y0184667D01*
X0527008Y0185000D01*
X0526675Y0185333D01*
X0526341D01*
X0525342D02*
Y0184000D01*
Y0184667D01*
X0525008Y0185000D01*
X0524675Y0185333D01*
X0524342D01*
X0523009D02*
X0522343D01*
X0522009Y0185000D01*
Y0184000D01*
X0523009D01*
X0523342Y0184333D01*
X0523009Y0184667D01*
X0522009D01*
X0521343Y0185333D02*
Y0184333D01*
X0521010Y0184000D01*
X0520010D01*
Y0183667D01*
X0520343Y0183334D01*
X0520677D01*
X0520010Y0184000D02*
Y0185333D01*
X0517344Y0185999D02*
Y0184000D01*
X0516345D01*
X0516011Y0184333D01*
Y0184667D01*
X0516345Y0185000D01*
X0517344D01*
X0516345D01*
X0516011Y0185333D01*
Y0185666D01*
X0516345Y0185999D01*
X0517344D01*
X0515012Y0184000D02*
X0514345D01*
X0514012Y0184333D01*
Y0185000D01*
X0514345Y0185333D01*
X0515012D01*
X0515345Y0185000D01*
Y0184333D01*
X0515012Y0184000D01*
X0513012Y0185333D02*
X0512346D01*
X0512013Y0185000D01*
Y0184000D01*
X0513012D01*
X0513346Y0184333D01*
X0513012Y0184667D01*
X0512013D01*
X0511346Y0185333D02*
Y0184000D01*
Y0184667D01*
X0511013Y0185000D01*
X0510680Y0185333D01*
X0510347D01*
X0508014Y0185999D02*
Y0184000D01*
X0509014D01*
X0509347Y0184333D01*
Y0185000D01*
X0509014Y0185333D01*
X0508014D01*
X0505348D02*
X0504682Y0184000D01*
X0504015Y0185333D01*
X0503349Y0184000D02*
X0502682D01*
X0503016D01*
Y0185999D01*
X0503349Y0185666D01*
X0501683Y0184000D02*
Y0184333D01*
X0501349D01*
Y0184000D01*
X0501683D01*
X0500017Y0185666D02*
X0499683Y0185999D01*
X0499017D01*
X0498684Y0185666D01*
Y0184333D01*
X0499017Y0184000D01*
X0499683D01*
X0500017Y0184333D01*
Y0185666D01*
X0496018Y0185000D02*
X0494685D01*
X0492019Y0184000D02*
Y0185999D01*
X0491019D01*
X0490686Y0185666D01*
Y0185000D01*
X0491019Y0184667D01*
X0492019D01*
X0491353D02*
X0490686Y0184000D01*
X0489687Y0185333D02*
X0489020D01*
X0488687Y0185000D01*
Y0184000D01*
X0489687D01*
X0490020Y0184333D01*
X0489687Y0184667D01*
X0488687D01*
X0488021Y0183334D02*
Y0185333D01*
X0487021D01*
X0486688Y0185000D01*
Y0184333D01*
X0487021Y0184000D01*
X0488021D01*
X0486021Y0185999D02*
Y0184000D01*
Y0185000D01*
X0485688Y0185333D01*
X0485021D01*
X0484688Y0185000D01*
Y0184000D01*
X0483688Y0185333D02*
X0483022D01*
X0482689Y0185000D01*
Y0184000D01*
X0483688D01*
X0484022Y0184333D01*
X0483688Y0184667D01*
X0482689D01*
X0481023Y0184000D02*
X0481689D01*
X0482022Y0184333D01*
Y0185000D01*
X0481689Y0185333D01*
X0481023D01*
X0480689Y0185000D01*
Y0184667D01*
X0482022D01*
X0480023Y0184000D02*
X0479357D01*
X0479690D01*
Y0185999D01*
X0480023D01*
X0475025Y0185666D02*
X0475358Y0185999D01*
X0476024D01*
X0476358Y0185666D01*
Y0184333D01*
X0476024Y0184000D01*
X0475358D01*
X0475025Y0184333D01*
X0474358Y0185999D02*
Y0184000D01*
Y0185000D01*
X0474025Y0185333D01*
X0473359D01*
X0473025Y0185000D01*
Y0184000D01*
X0472026Y0185333D02*
X0471359D01*
X0471026Y0185000D01*
Y0184000D01*
X0472026D01*
X0472359Y0184333D01*
X0472026Y0184667D01*
X0471026D01*
X0470360Y0184000D02*
Y0185333D01*
X0469360D01*
X0469027Y0185000D01*
Y0184000D01*
X0467694Y0183334D02*
X0467360D01*
X0467027Y0183667D01*
Y0185333D01*
X0468027D01*
X0468360Y0185000D01*
Y0184333D01*
X0468027Y0184000D01*
X0467027D01*
M02*
